<svg width="86" height="92" viewBox="0 0 86 92" fill="none" xmlns="http://www.w3.org/2000/svg">
<path d="M0 57.5904C2.90239 57.4458 5.35826 56.241 7.3676 53.9759C9.37695 51.7108 10.4039 49.012 10.4039 45.8795C10.4039 49.012 11.3863 51.7108 13.3956 53.9759C15.405 56.241 17.8609 57.4458 20.7632 57.5904C17.8609 57.7349 15.405 58.9398 13.3956 61.2048C12.4242 62.2726 11.6593 63.5384 11.1457 64.9284C10.6321 66.3185 10.3799 67.8049 10.4039 69.3012C10.4039 66.1687 9.4216 63.4699 7.3676 61.2048C5.35826 58.9398 2.90239 57.7349 0 57.5904ZM10.4039 22.8916C16.0301 22.6024 20.8079 20.241 24.7373 15.8072C28.6667 11.3735 30.6314 6.12048 30.6314 0C30.6314 6.12048 32.5961 11.3735 36.5254 15.8072C40.4548 20.241 45.2326 22.5542 50.9034 22.8916C47.1973 23.0843 43.8037 24.1928 40.6781 26.3133C37.5971 28.3855 35.1412 31.1807 33.3105 34.6506C31.5244 38.1205 30.6314 41.8313 30.6314 45.8795C30.6314 39.759 28.6667 34.4578 24.7373 30.0241C20.8079 25.5422 16.0301 23.1807 10.4039 22.8916ZM25.2285 74.7952C29.4704 74.6024 33.0872 72.8193 36.0343 69.494C38.9813 66.1687 40.4548 62.2169 40.4548 57.5904C40.4548 62.2169 41.9284 66.1687 44.8754 69.494C47.8224 72.8193 51.3946 74.6024 55.6366 74.7952C51.3946 74.988 47.8224 76.7711 44.8754 80.0964C41.9284 83.4217 40.4548 87.3735 40.4548 92C40.4548 87.3735 38.9813 83.4217 36.0343 80.0964C33.2176 76.8656 29.3358 74.9613 25.2285 74.7952ZM55.6366 51.9518C59.8785 51.759 63.4507 49.9759 66.3977 46.6506C69.3448 43.3253 70.7736 39.3735 70.7736 34.6988C70.7736 39.3253 72.2471 43.2771 75.1942 46.6024C78.1412 49.9277 81.758 51.7108 86 51.9036C81.758 52.0964 78.1412 53.8795 75.1942 57.2048C72.2471 60.5301 70.7736 64.4819 70.7736 69.1084C70.7736 64.4819 69.3001 60.5301 66.3977 57.2048C63.4507 53.9277 59.8785 52.1446 55.6366 51.9518Z" fill="#FFD700"/>
</svg>
