<svg width="19" height="12" viewBox="0 0 19 12" fill="none" xmlns="http://www.w3.org/2000/svg">
<path d="M18.3571 0.521003C18.0214 0.187304 17.5673 0 17.0939 0C16.6206 0 16.1665 0.187304 15.8308 0.521003L9.39872 6.8635L3.05622 0.521003C2.72053 0.187304 2.26643 0 1.7931 0C1.31976 0 0.865663 0.187304 0.529972 0.521003C0.362042 0.687562 0.228752 0.885722 0.137791 1.10405C0.0468306 1.32238 0 1.55657 0 1.79309C0 2.02961 0.0468306 2.26379 0.137791 2.48212C0.228752 2.70045 0.362042 2.89861 0.529972 3.06517L8.12664 10.6618C8.2932 10.8298 8.49136 10.9631 8.70969 11.054C8.92802 11.145 9.1622 11.1918 9.39872 11.1918C9.63524 11.1918 9.86942 11.145 10.0878 11.054C10.3061 10.9631 10.5042 10.8298 10.6708 10.6618L18.3571 3.06517C18.525 2.89861 18.6583 2.70045 18.7492 2.48212C18.8402 2.26379 18.887 2.02961 18.887 1.79309C18.887 1.55657 18.8402 1.32238 18.7492 1.10405C18.6583 0.885722 18.525 0.687562 18.3571 0.521003Z" fill="white"/>
</svg>
