<svg width="1224" height="1317" viewBox="0 0 1224 1317" fill="none" xmlns="http://www.w3.org/2000/svg">
<path d="M148.172 0.993652C102.466 6.2227 9.24593 38.2506 2.01334 124.53C-5.21926 210.809 26.3731 288.156 43.0734 316.044C63.6662 345.675 129.111 413.043 226.148 445.463C323.186 477.883 364.511 422.249 384.362 395.133C402.066 370.949 395.416 295.89 364.02 339.575C324.09 395.133 319.193 457.228 367.41 502.982C415.627 548.737 747.794 342.531 863.521 350.033C994.612 358.53 1142.28 429.776 1195.77 641.552C1229.45 774.893 1230.64 940.601 1205.94 1014.12C1156.97 1159.88 1136.5 1204.48 1014.45 1287.49" stroke="#FFD700" stroke-opacity="0.76" stroke-width="2" stroke-dasharray="50 30 5 10 20 20 80 30"/>
<path d="M993.455 1259.99L971.955 1305.49L1017.45 1315.49" stroke="#FFD700" stroke-opacity="0.76" stroke-width="2" stroke-dasharray="200 30"/>
</svg>
