<svg width="19" height="15" viewBox="0 0 19 15" fill="none" xmlns="http://www.w3.org/2000/svg">
<path d="M18.7358 4.32332C18.7495 4.88493 18.75 5.52256 18.75 6.25V8.33333C18.75 11.2796 18.7498 12.7525 17.8345 13.6678C16.9192 14.5831 15.4463 14.5833 12.5 14.5833H6.25C3.30373 14.5833 1.83082 14.5831 0.91553 13.6678C0.000239102 12.7525 3.02802e-06 11.2796 3.02802e-06 8.33333V6.25C3.02802e-06 5.52257 -0.000548288 4.88493 0.0132273 4.32332L8.36284 8.96301C8.99205 9.31258 9.75795 9.31258 10.3872 8.96301L18.7358 4.32332Z" fill="#FFD700"/>
<path d="M12.5 0C15.4463 0 16.9192 0.000236059 17.8345 0.915527C18.1537 1.23472 18.3593 1.6222 18.4947 2.11589C18.4093 2.13755 18.3251 2.16977 18.2444 2.21456L9.375 7.14213L0.505578 2.21456C0.424623 2.1696 0.340031 2.13755 0.254316 2.11589C0.3897 1.62207 0.596285 1.23477 0.91553 0.915527C1.83082 0.000236059 3.30372 0 6.25 0H12.5Z" fill="#FFD700"/>
</svg>
