<svg width="321" height="3153" viewBox="0 0 321 3153" fill="none" xmlns="http://www.w3.org/2000/svg">
<path d="M286.266 0.15625C272.678 86.0903 126.716 80.8244 122.062 245.523C117.407 410.222 137.739 557.869 148.487 611.105C161.741 667.668 72.2631 755.435 107.287 877.638C138.21 985.533 198.182 1025.64 242.693 964.527C277.729 916.425 320 975.985 320 1088.65C320 1223.09 238.227 1223.46 206.147 1309.22C170.07 1405.65 28.8524 1227.41 2.8043 1370.33C-21.5591 1504 208.266 1573.33 242.693 1977.59C264.369 2232.13 137.959 2702.32 122.061 2842.66C90.5444 3120.9 221.455 2951.57 191 3108.16" stroke="#FFD700" stroke-opacity="0.76" stroke-width="2" stroke-dasharray="50 30 5 10 20 20 80 30"/>
<path d="M158.939 3102.32L182.338 3146.88L217.707 3116.56" stroke="#FFD700" stroke-opacity="0.76" stroke-width="2" stroke-dasharray="200 30"/>
</svg>
