<svg width="382" height="2896" viewBox="0 0 382 2896" fill="none" xmlns="http://www.w3.org/2000/svg">
<path d="M378.682 76.3961L379.672 76.5361L378.682 76.3961ZM247.5 634L247.588 633.004L247.544 633H247.5V634ZM162.05 680.521L161.052 680.461L162.05 680.521ZM225 770L224.001 770.053L225 770ZM260 861.5L260.437 860.601L260 861.5ZM300.497 930.964L299.608 930.508L300.497 930.964ZM240.521 1745.79L239.706 1745.21L240.521 1745.79ZM245.817 2133.09L246.744 2133.47L245.817 2133.09ZM18.5929 2609.5L19.5706 2609.29L18.5929 2609.5ZM315.842 2834.27L316.824 2834.46L315.842 2834.27ZM299.603 2870.06C299.096 2870.28 298.863 2870.86 299.082 2871.37C299.301 2871.88 299.89 2872.11 300.397 2871.89L300 2870.97L299.603 2870.06ZM310.918 2869.19C311.47 2869.19 311.915 2868.74 311.912 2868.18C311.909 2867.63 311.459 2867.19 310.907 2867.19L310.912 2868.19L310.918 2869.19ZM321.278 2875.94C321.182 2875.39 320.663 2875.03 320.119 2875.13C319.575 2875.22 319.212 2875.74 319.308 2876.29L320.293 2876.11L321.278 2875.94ZM319.533 2878.4C319.557 2878.95 320.024 2879.38 320.576 2879.36C321.127 2879.33 321.555 2878.87 321.531 2878.32L320.532 2878.36L319.533 2878.4ZM321.261 2883.02C321.342 2882.47 320.965 2881.96 320.419 2881.88C319.872 2881.8 319.364 2882.18 319.283 2882.72L320.272 2882.87L321.261 2883.02ZM316.687 2891.04C316.436 2891.53 316.632 2892.13 317.124 2892.38C317.616 2892.64 318.218 2892.44 318.469 2891.95L317.578 2891.49L316.687 2891.04ZM310.354 2895.14C310.632 2895.61 311.244 2895.78 311.721 2895.5C312.199 2895.22 312.361 2894.61 312.083 2894.13L311.219 2894.63L310.354 2895.14ZM312.645 2859.07C312.722 2858.52 312.341 2858.02 311.794 2857.94C311.248 2857.86 310.742 2858.25 310.664 2858.79L311.655 2858.93L312.645 2859.07ZM312.816 2845.22C312.721 2845.76 313.086 2846.28 313.63 2846.38C314.174 2846.47 314.692 2846.11 314.786 2845.56L313.801 2845.39L312.816 2845.22ZM319.111 2813C319.115 2812.45 318.67 2812 318.117 2811.99C317.565 2811.99 317.115 2812.43 317.111 2812.99L318.111 2812.99L319.111 2813ZM313.057 2788.49C313.255 2789 313.834 2789.26 314.349 2789.06C314.865 2788.86 315.121 2788.28 314.923 2787.77L313.99 2788.13L313.057 2788.49ZM313.207 2783.79C312.968 2783.29 312.37 2783.08 311.872 2783.32C311.374 2783.56 311.165 2784.16 311.404 2784.66L312.305 2784.22L313.207 2783.79ZM307.217 2777.5C307.534 2777.95 308.158 2778.06 308.61 2777.74C309.062 2777.43 309.172 2776.8 308.855 2776.35L308.036 2776.93L307.217 2777.5ZM296.904 2763.94C296.468 2763.6 295.84 2763.68 295.501 2764.12C295.162 2764.55 295.24 2765.18 295.676 2765.52L296.29 2764.73L296.904 2763.94ZM281.438 2756.8C281.934 2757.05 282.533 2756.84 282.775 2756.34C283.016 2755.85 282.81 2755.25 282.313 2755.01L281.875 2755.91L281.438 2756.8ZM216.698 2737.09C216.154 2736.99 215.636 2737.35 215.54 2737.9C215.444 2738.44 215.807 2738.96 216.351 2739.06L216.525 2738.07L216.698 2737.09ZM191.226 2734.75C191.77 2734.85 192.288 2734.48 192.381 2733.94C192.474 2733.39 192.109 2732.87 191.565 2732.78L191.395 2733.77L191.226 2734.75ZM149.942 2724.67C149.404 2724.54 148.867 2724.88 148.742 2725.42C148.617 2725.96 148.952 2726.49 149.49 2726.62L149.716 2725.64L149.942 2724.67ZM124.826 2719.99C125.353 2720.15 125.914 2719.86 126.078 2719.33C126.243 2718.8 125.949 2718.24 125.422 2718.08L125.124 2719.03L124.826 2719.99ZM121.383 2716.78C120.858 2716.61 120.293 2716.9 120.12 2717.42C119.947 2717.95 120.233 2718.51 120.757 2718.68L121.07 2717.73L121.383 2716.78ZM112.713 2715.88C113.231 2716.07 113.806 2715.81 113.996 2715.29C114.187 2714.77 113.921 2714.2 113.403 2714.01L113.058 2714.95L112.713 2715.88ZM97.7841 2707.55C97.283 2707.32 96.6886 2707.54 96.4564 2708.04C96.2242 2708.54 96.4421 2709.14 96.9432 2709.37L97.3637 2708.46L97.7841 2707.55ZM81.8136 2701.45C82.2892 2701.73 82.9023 2701.57 83.1831 2701.1C83.4639 2700.62 83.306 2700.01 82.8305 2699.73L82.322 2700.59L81.8136 2701.45ZM35.7014 2652.68C35.4275 2652.2 34.8167 2652.03 34.3371 2652.31C33.8575 2652.58 33.6908 2653.19 33.9647 2653.67L34.8331 2653.17L35.7014 2652.68ZM23.3937 2630.36C23.5767 2630.88 24.1475 2631.16 24.6686 2630.97C25.1896 2630.79 25.4637 2630.22 25.2807 2629.7L24.3372 2630.03L23.3937 2630.36ZM18.3219 2582.56C18.3663 2582.01 17.9561 2581.52 17.4056 2581.48C16.8551 2581.44 16.3728 2581.85 16.3283 2582.4L17.3251 2582.48L18.3219 2582.56ZM22.0045 2550.05C21.8691 2550.58 22.1935 2551.13 22.7289 2551.26C23.2644 2551.4 23.8082 2551.07 23.9435 2550.54L22.974 2550.29L22.0045 2550.05ZM25.3552 2545.17C25.5007 2544.64 25.1868 2544.09 24.654 2543.94C24.1213 2543.8 23.5714 2544.11 23.4259 2544.65L24.3905 2544.91L25.3552 2545.17ZM26.4532 2534.25C26.2906 2534.77 26.5865 2535.33 27.1143 2535.5C27.6421 2535.66 28.2018 2535.36 28.3645 2534.84L27.4089 2534.54L26.4532 2534.25ZM35.3574 2514.15C35.547 2513.63 35.2802 2513.06 34.7615 2512.87C34.2427 2512.68 33.6685 2512.95 33.4789 2513.47L34.4182 2513.81L35.3574 2514.15ZM41.3857 2493.11C41.1763 2493.62 41.4208 2494.2 41.9319 2494.41C42.4429 2494.62 43.027 2494.38 43.2364 2493.87L42.311 2493.49L41.3857 2493.11ZM80.3806 2415.09C80.6359 2414.6 80.4458 2413.99 79.9561 2413.74C79.4663 2413.48 78.8624 2413.67 78.6071 2414.16L79.4938 2414.62L80.3806 2415.09ZM94.0653 2385.27C93.7998 2385.76 93.9772 2386.36 94.4616 2386.63C94.9459 2386.9 95.5537 2386.72 95.8191 2386.23L94.9422 2385.75L94.0653 2385.27ZM122.674 2338.8C122.952 2338.33 122.791 2337.71 122.314 2337.44C121.836 2337.16 121.224 2337.32 120.946 2337.8L121.81 2338.3L122.674 2338.8ZM137.582 2309.64C137.299 2310.11 137.453 2310.72 137.927 2311.01C138.401 2311.29 139.015 2311.14 139.299 2310.66L138.44 2310.15L137.582 2309.64ZM142.118 2305.96C142.402 2305.49 142.249 2304.87 141.776 2304.59C141.302 2304.3 140.688 2304.46 140.403 2304.93L141.261 2305.45L142.118 2305.96ZM146.029 2295.6C145.743 2296.08 145.894 2296.69 146.367 2296.98C146.839 2297.26 147.454 2297.11 147.74 2296.64L146.884 2296.12L146.029 2295.6ZM159.08 2278.02C159.369 2277.55 159.221 2276.94 158.75 2276.65C158.279 2276.36 157.664 2276.51 157.375 2276.98L158.227 2277.5L159.08 2278.02ZM168.807 2258.43C168.517 2258.9 168.661 2259.52 169.131 2259.81C169.6 2260.1 170.217 2259.95 170.508 2259.48L169.657 2258.96L168.807 2258.43ZM216.726 2185.52C217.017 2185.05 216.873 2184.43 216.404 2184.14C215.935 2183.85 215.319 2183.99 215.027 2184.46L215.876 2184.99L216.726 2185.52ZM232.161 2156.41C231.88 2156.88 232.037 2157.5 232.512 2157.78C232.987 2158.06 233.601 2157.9 233.882 2157.43L233.022 2156.92L232.161 2156.41ZM259.931 2102.06C260.144 2101.55 259.903 2100.96 259.393 2100.75C258.884 2100.54 258.298 2100.78 258.086 2101.29L259.009 2101.67L259.931 2102.06ZM272.9 2063.19C272.715 2063.72 272.986 2064.29 273.507 2064.47C274.027 2064.66 274.599 2064.39 274.784 2063.86L273.842 2063.53L272.9 2063.19ZM277.045 2057.4C277.224 2056.87 276.946 2056.3 276.424 2056.12C275.901 2055.95 275.332 2056.22 275.153 2056.75L276.099 2057.07L277.045 2057.4ZM279.419 2043.85C279.252 2044.38 279.542 2044.94 280.069 2045.11C280.595 2045.28 281.157 2044.99 281.325 2044.46L280.372 2044.16L279.419 2043.85ZM289.032 2018.24C289.176 2017.71 288.861 2017.16 288.327 2017.02C287.794 2016.87 287.245 2017.19 287.101 2017.72L288.067 2017.98L289.032 2018.24ZM293.627 1991.25C293.507 1991.79 293.846 1992.32 294.385 1992.44C294.924 1992.56 295.458 1992.22 295.579 1991.68L294.603 1991.47L293.627 1991.25ZM311.227 1883.67C311.269 1883.12 310.856 1882.64 310.305 1882.6C309.755 1882.56 309.275 1882.97 309.233 1883.52L310.23 1883.6L311.227 1883.67ZM311.411 1842.65C311.393 1843.2 311.826 1843.66 312.378 1843.68C312.93 1843.7 313.392 1843.26 313.41 1842.71L312.41 1842.68L311.411 1842.65ZM313.706 1791.06C313.691 1790.51 313.23 1790.07 312.678 1790.09C312.126 1790.1 311.691 1790.56 311.707 1791.12L312.707 1791.09L313.706 1791.06ZM310.625 1770.18C310.668 1770.73 311.149 1771.14 311.7 1771.1C312.25 1771.06 312.662 1770.57 312.619 1770.02L311.622 1770.1L310.625 1770.18ZM312.332 1766.58C312.284 1766.03 311.798 1765.62 311.248 1765.67C310.698 1765.72 310.292 1766.2 310.34 1766.75L311.336 1766.67L312.332 1766.58ZM309.647 1759.82C309.708 1760.37 310.203 1760.76 310.752 1760.7C311.301 1760.64 311.696 1760.15 311.634 1759.6L310.64 1759.71L309.647 1759.82ZM309.645 1745.67C309.548 1745.13 309.028 1744.77 308.485 1744.86C307.941 1744.96 307.579 1745.48 307.676 1746.02L308.66 1745.85L309.645 1745.67ZM304.578 1732.48C304.732 1733.01 305.287 1733.31 305.818 1733.16C306.348 1733 306.652 1732.45 306.498 1731.92L305.538 1732.2L304.578 1732.48ZM265.012 1716.01C264.59 1716.37 264.536 1717 264.892 1717.42C265.248 1717.84 265.878 1717.9 266.301 1717.54L265.657 1716.78L265.012 1716.01ZM251.917 1732.47C252.269 1732.05 252.209 1731.42 251.783 1731.07C251.357 1730.71 250.727 1730.77 250.375 1731.2L251.146 1731.84L251.917 1732.47ZM224.414 1768.73C224.111 1769.19 224.239 1769.81 224.701 1770.11C225.162 1770.41 225.782 1770.29 226.085 1769.82L225.25 1769.28L224.414 1768.73ZM207.154 1797.58C207.474 1797.13 207.369 1796.51 206.918 1796.19C206.468 1795.87 205.844 1795.98 205.524 1796.43L206.339 1797.01L207.154 1797.58ZM202.225 1801.03C201.902 1801.48 202.003 1802.11 202.451 1802.43C202.899 1802.75 203.524 1802.65 203.847 1802.2L203.036 1801.62L202.225 1801.03ZM197.211 1811.25C197.541 1810.81 197.45 1810.18 197.007 1809.85C196.564 1809.52 195.938 1809.61 195.608 1810.06L196.409 1810.65L197.211 1811.25ZM181.903 1827.78C181.557 1828.21 181.626 1828.84 182.056 1829.18C182.487 1829.53 183.116 1829.46 183.462 1829.03L182.683 1828.4L181.903 1827.78ZM168.98 1846.25C169.346 1845.84 169.307 1845.2 168.893 1844.84C168.479 1844.47 167.847 1844.51 167.481 1844.93L168.231 1845.59L168.98 1846.25ZM97.9011 1899.44C97.3779 1899.62 97.0968 1900.18 97.2735 1900.71C97.4501 1901.23 98.0175 1901.51 98.5408 1901.34L98.221 1900.39L97.9011 1899.44ZM65.0151 1901.6C65.5291 1901.8 66.1095 1901.55 66.3115 1901.03C66.5134 1900.52 66.2604 1899.94 65.7463 1899.74L65.3807 1900.67L65.0151 1901.6ZM30.7074 1859.06C30.4868 1858.55 29.8975 1858.32 29.3912 1858.54C28.8849 1858.76 28.6532 1859.35 28.8738 1859.85L29.7906 1859.46L30.7074 1859.06ZM18.0381 1827.77C18.1786 1828.31 18.7254 1828.62 19.2596 1828.48C19.7937 1828.34 20.1128 1827.8 19.9723 1827.26L19.0052 1827.52L18.0381 1827.77ZM18.6408 1822.02C18.5095 1821.48 17.9681 1821.15 17.4317 1821.28C16.8953 1821.41 16.5669 1821.96 16.6982 1822.49L17.6695 1822.25L18.6408 1822.02ZM14.1543 1811.32C14.2686 1811.86 14.7993 1812.2 15.3396 1812.09C15.8799 1811.98 16.2253 1811.45 16.1109 1810.9L15.1326 1811.11L14.1543 1811.32ZM12.0831 1789.13C11.9953 1788.58 11.4821 1788.21 10.9368 1788.3C10.3916 1788.39 10.0207 1788.9 10.1086 1789.45L11.0958 1789.29L12.0831 1789.13ZM6.97625 1767.23C7.04345 1767.78 7.54231 1768.17 8.09049 1768.1C8.63867 1768.03 9.02859 1767.53 8.9614 1766.98L7.96883 1767.11L6.97625 1767.23ZM2.67327 1677.65C2.65687 1677.1 2.19605 1676.66 1.64401 1676.68C1.09197 1676.69 0.657749 1677.16 0.674157 1677.71L1.67372 1677.68L2.67327 1677.65ZM0.0550001 1644.16C0.0593796 1644.71 0.510631 1645.15 1.0629 1645.15C1.61517 1645.14 2.05932 1644.69 2.05494 1644.14L1.05497 1644.15L0.0550001 1644.16ZM2.34459 1588.13C2.35204 1587.58 1.91041 1587.13 1.35817 1587.12C0.805939 1587.11 0.352223 1587.55 0.34477 1588.11L1.34468 1588.12L2.34459 1588.13ZM0.897962 1555.95C0.886344 1556.5 1.32454 1556.96 1.8767 1556.97C2.42887 1556.98 2.8859 1556.55 2.89752 1555.99L1.89774 1555.97L0.897962 1555.95ZM3.0163 1550.52C3.02867 1549.97 2.59109 1549.51 2.03895 1549.5C1.4868 1549.49 1.02917 1549.93 1.0168 1550.48L2.01655 1550.5L3.0163 1550.52ZM1.27371 1539.68C1.25981 1540.23 1.69612 1540.69 2.24823 1540.7C2.80034 1540.72 3.25918 1540.28 3.27308 1539.73L2.27339 1539.7L1.27371 1539.68ZM3.86616 1518.55C3.88322 1518 3.44956 1517.54 2.89754 1517.52C2.34552 1517.51 1.88418 1517.94 1.86711 1518.49L2.86663 1518.52L3.86616 1518.55ZM2.61224 1496.63C2.59163 1497.18 3.02233 1497.65 3.57423 1497.67C4.12613 1497.69 4.59024 1497.26 4.61085 1496.71L3.61154 1496.67L2.61224 1496.63ZM9.09171 1410.85C9.12976 1410.3 8.71395 1409.82 8.16298 1409.78C7.61201 1409.75 7.13451 1410.16 7.09646 1410.71L8.09409 1410.78L9.09171 1410.85ZM9.56946 1378.47C9.52279 1379.02 9.93108 1379.5 10.4814 1379.55C11.0317 1379.6 11.5156 1379.19 11.5623 1378.64L10.5659 1378.55L9.56946 1378.47ZM16.9577 1325.1C17.0228 1324.55 16.631 1324.05 16.0826 1323.98C15.5341 1323.92 15.0368 1324.31 14.9717 1324.86L15.9647 1324.98L16.9577 1325.1ZM19.1903 1292.86C19.1104 1293.4 19.4887 1293.91 20.0352 1293.99C20.5817 1294.07 21.0894 1293.69 21.1693 1293.15L20.1798 1293L19.1903 1292.86ZM21.9402 1287.96C22.0228 1287.41 21.6471 1286.91 21.101 1286.82C20.555 1286.74 20.0453 1287.12 19.9627 1287.66L20.9514 1287.81L21.9402 1287.96ZM21.6518 1276.9C21.563 1277.45 21.933 1277.96 22.4781 1278.05C23.0232 1278.14 23.537 1277.77 23.6258 1277.22L22.6388 1277.06L21.6518 1276.9ZM27.3416 1256.07C27.4444 1255.53 27.088 1255.01 26.5453 1254.91C26.0027 1254.8 25.4794 1255.16 25.3766 1255.7L26.3591 1255.89L27.3416 1256.07ZM29.7259 1234.57C29.6054 1235.11 29.9447 1235.64 30.4837 1235.76C31.0226 1235.88 31.5572 1235.55 31.6777 1235.01L30.7018 1234.79L29.7259 1234.57ZM60.1964 1154.56C60.4866 1154.09 60.3409 1153.47 59.871 1153.18C59.4011 1152.89 58.7849 1153.04 58.4947 1153.51L59.3456 1154.03L60.1964 1154.56ZM81.2285 1130.45C80.733 1130.7 80.5291 1131.3 80.773 1131.79C81.017 1132.29 81.6164 1132.49 82.1119 1132.25L81.6702 1131.35L81.2285 1130.45ZM126.878 1138.73C127.38 1138.96 127.973 1138.74 128.203 1138.23C128.432 1137.73 128.211 1137.14 127.709 1136.91L127.293 1137.82L126.878 1138.73ZM150.693 1147.4C150.189 1147.17 149.597 1147.4 149.371 1147.9C149.145 1148.41 149.37 1149 149.873 1149.22L150.283 1148.31L150.693 1147.4ZM153.717 1150.94C154.222 1151.17 154.813 1150.94 155.037 1150.44C155.262 1149.93 155.035 1149.34 154.53 1149.11L154.124 1150.03L153.717 1150.94ZM162.228 1152.5C161.721 1152.28 161.132 1152.51 160.912 1153.02C160.692 1153.53 160.924 1154.11 161.431 1154.34L161.829 1153.42L162.228 1152.5ZM176.959 1160.88C177.47 1161.09 178.054 1160.84 178.262 1160.33C178.471 1159.82 178.225 1159.24 177.713 1159.03L177.336 1159.96L176.959 1160.88ZM193.365 1165.13C192.847 1164.94 192.272 1165.2 192.08 1165.72C191.888 1166.24 192.153 1166.81 192.671 1167.01L193.018 1166.07L193.365 1165.13ZM258.507 1180.95C259.056 1180.9 259.459 1180.41 259.405 1179.86C259.352 1179.31 258.863 1178.91 258.314 1178.96L258.41 1179.96L258.507 1180.95ZM278.359 1167.54C278.11 1168.03 278.309 1168.63 278.802 1168.88C279.295 1169.13 279.897 1168.93 280.145 1168.44L279.252 1167.99L278.359 1167.54ZM279.793 1125C279.744 1124.45 279.259 1124.04 278.709 1124.09C278.159 1124.14 277.752 1124.62 277.8 1125.17L278.797 1125.09L279.793 1125ZM276.214 1098.31C276.231 1098.86 276.693 1099.29 277.245 1099.27C277.797 1099.26 278.23 1098.79 278.213 1098.24L277.213 1098.27L276.214 1098.31ZM278.09 1093.78C278.077 1093.22 277.619 1092.79 277.067 1092.8C276.514 1092.81 276.077 1093.27 276.09 1093.82L277.09 1093.8L278.09 1093.78ZM275.956 1084.85C275.96 1085.41 276.411 1085.85 276.963 1085.85C277.515 1085.84 277.96 1085.39 277.956 1084.84L276.956 1084.85L275.956 1084.85ZM278.122 1066.97C278.135 1066.42 277.699 1065.96 277.147 1065.94C276.595 1065.93 276.136 1066.37 276.122 1066.92L277.122 1066.94L278.122 1066.97ZM276.845 1048.99C276.814 1049.54 277.237 1050.01 277.788 1050.04C278.339 1050.08 278.811 1049.65 278.842 1049.1L277.844 1049.05L276.845 1048.99ZM287.376 978.177C287.482 977.635 287.129 977.11 286.587 977.003C286.045 976.897 285.519 977.251 285.413 977.793L286.395 977.985L287.376 978.177ZM291.67 951.581C291.515 952.111 291.819 952.667 292.349 952.822C292.879 952.977 293.435 952.673 293.59 952.143L292.63 951.862L291.67 951.581ZM305.592 922.478C305.805 921.968 305.564 921.382 305.054 921.169C304.545 920.956 303.959 921.197 303.746 921.707L304.669 922.092L305.592 922.478ZM307.227 910.703C307.124 911.245 307.481 911.768 308.024 911.871C308.566 911.973 309.089 911.616 309.192 911.074L308.209 910.888L307.227 910.703ZM309.511 909.086C309.584 908.539 309.198 908.036 308.651 907.964C308.103 907.892 307.601 908.277 307.529 908.825L308.52 908.955L309.511 909.086ZM307.781 905.055C307.783 905.607 308.231 906.054 308.784 906.053C309.336 906.052 309.783 905.603 309.781 905.05L308.781 905.053L307.781 905.055ZM308.443 897.027C308.261 896.505 307.691 896.23 307.17 896.412C306.648 896.594 306.373 897.164 306.555 897.686L307.499 897.356L308.443 897.027ZM302.992 891.084C303.321 891.528 303.947 891.622 304.391 891.294C304.835 890.966 304.929 890.339 304.601 889.895L303.797 890.49L302.992 891.084ZM279.657 870.566C279.176 870.295 278.566 870.465 278.295 870.945C278.023 871.426 278.193 872.036 278.674 872.308L279.165 871.437L279.657 870.566ZM268.323 866.764C268.815 867.016 269.417 866.821 269.669 866.33C269.921 865.838 269.726 865.235 269.235 864.984L268.779 865.874L268.323 866.764ZM251.116 855.489C250.648 855.195 250.031 855.336 249.737 855.803C249.443 856.271 249.584 856.888 250.051 857.182L250.584 856.336L251.116 855.489ZM239.803 849.063C240.188 849.46 240.821 849.471 241.217 849.086C241.614 848.702 241.625 848.069 241.241 847.672L240.522 848.368L239.803 849.063ZM239.824 846.129C239.461 845.712 238.829 845.668 238.413 846.031C237.996 846.393 237.952 847.025 238.315 847.442L239.069 846.785L239.824 846.129ZM235.616 843.967C235.929 844.421 236.552 844.535 237.007 844.222C237.461 843.908 237.576 843.285 237.262 842.831L236.439 843.399L235.616 843.967ZM233.305 835.476C233.095 834.965 232.511 834.721 232 834.931C231.489 835.141 231.245 835.725 231.455 836.236L232.38 835.856L233.305 835.476ZM228.823 827.921C228.952 828.458 229.491 828.789 230.028 828.661C230.565 828.533 230.897 827.993 230.768 827.456L229.796 827.688L228.823 827.921ZM227.15 793.542C227.122 792.99 226.653 792.566 226.101 792.593C225.55 792.621 225.125 793.091 225.153 793.643L226.152 793.592L227.15 793.542ZM224.535 780.772C224.562 781.323 225.03 781.749 225.582 781.723C226.133 781.697 226.559 781.228 226.533 780.677L225.534 780.724L224.535 780.772ZM224.149 757.651C224.004 757.118 223.455 756.803 222.922 756.947C222.389 757.091 222.074 757.641 222.218 758.174L223.183 757.912L224.149 757.651ZM215.973 745.543C216.321 745.972 216.95 746.038 217.379 745.69C217.809 745.343 217.875 744.713 217.527 744.284L216.75 744.913L215.973 745.543ZM215.873 742.397C215.493 741.997 214.86 741.98 214.459 742.36C214.058 742.74 214.041 743.372 214.421 743.773L215.147 743.085L215.873 742.397ZM210.923 740.593C211.357 740.934 211.985 740.859 212.327 740.426C212.669 739.992 212.594 739.363 212.16 739.021L211.541 739.807L210.923 740.593ZM203.7 733.797C203.206 733.551 202.606 733.753 202.36 734.247C202.114 734.742 202.316 735.342 202.811 735.588L203.255 734.692L203.7 733.797ZM193.943 731.702C194.455 731.91 195.038 731.664 195.246 731.152C195.454 730.641 195.208 730.057 194.697 729.849L194.32 730.776L193.943 731.702ZM165.995 706.664C165.797 706.149 165.218 705.891 164.703 706.09C164.187 706.288 163.93 706.866 164.128 707.382L165.062 707.023L165.995 706.664ZM161.077 692.808C161.119 693.358 161.599 693.771 162.15 693.729C162.7 693.688 163.113 693.207 163.071 692.657L162.074 692.732L161.077 692.808ZM164.525 669.084C164.636 668.543 164.288 668.014 163.747 667.903C163.206 667.791 162.677 668.139 162.566 668.68L163.545 668.882L164.525 669.084ZM167.054 655.089C166.814 655.586 167.022 656.184 167.519 656.424C168.017 656.665 168.614 656.457 168.855 655.959L167.954 655.524L167.054 655.089ZM169.905 653.919C170.17 653.435 169.992 652.827 169.508 652.562C169.023 652.297 168.415 652.475 168.15 652.959L169.028 653.439L169.905 653.919ZM170.675 648.878C170.359 649.331 170.47 649.954 170.924 650.27C171.377 650.586 172 650.475 172.316 650.022L171.495 649.45L170.675 648.878ZM178.366 643.191C178.779 642.824 178.816 642.191 178.448 641.779C178.081 641.366 177.449 641.33 177.037 641.697L177.701 642.444L178.366 643.191ZM184.893 636.199C184.408 636.463 184.228 637.07 184.492 637.555C184.755 638.04 185.362 638.22 185.848 637.957L185.371 637.078L184.893 636.199ZM221.853 631.772C222.404 631.806 222.878 631.386 222.911 630.834C222.945 630.283 222.525 629.809 221.974 629.776L221.913 630.774L221.853 631.772ZM236.058 631.334C235.512 631.252 235.003 631.627 234.92 632.173C234.837 632.719 235.212 633.229 235.758 633.312L235.908 632.323L236.058 631.334ZM268.428 634.453C268.973 634.364 269.343 633.85 269.254 633.305C269.165 632.76 268.651 632.39 268.106 632.479L268.267 633.466L268.428 634.453ZM290.386 623.259C289.948 623.596 289.867 624.224 290.204 624.661C290.541 625.099 291.169 625.18 291.606 624.843L290.996 624.051L290.386 623.259ZM294.834 622.106C295.238 621.73 295.26 621.097 294.883 620.693C294.507 620.289 293.874 620.266 293.47 620.643L294.152 621.375L294.834 622.106ZM298.873 614.6C298.542 615.042 298.633 615.669 299.076 615.999C299.518 616.33 300.145 616.239 300.475 615.796L299.674 615.198L298.873 614.6ZM308.38 600.948C308.572 600.43 308.307 599.854 307.789 599.662C307.271 599.471 306.696 599.735 306.504 600.253L307.442 600.6L308.38 600.948ZM310.606 584.369C310.516 584.914 310.884 585.429 311.429 585.519C311.974 585.61 312.489 585.241 312.579 584.697L311.593 584.533L310.606 584.369ZM310.44 518.267C310.352 517.721 309.838 517.351 309.293 517.439C308.748 517.526 308.377 518.04 308.465 518.585L309.452 518.426L310.44 518.267ZM303.868 494.143C303.981 494.683 304.511 495.029 305.052 494.916C305.592 494.802 305.939 494.272 305.825 493.732L304.846 493.937L303.868 494.143ZM300.868 453.213C300.908 452.662 300.494 452.183 299.943 452.144C299.392 452.104 298.913 452.518 298.874 453.069L299.871 453.141L300.868 453.213ZM302.022 428.327C301.93 428.871 302.298 429.387 302.843 429.478C303.388 429.569 303.903 429.201 303.994 428.657L303.008 428.492L302.022 428.327ZM304.7 424.549C304.796 424.005 304.433 423.487 303.889 423.391C303.345 423.295 302.826 423.658 302.73 424.202L303.715 424.376L304.7 424.549ZM304.239 416.013C304.135 416.556 304.491 417.079 305.033 417.183C305.575 417.287 306.099 416.932 306.203 416.389L305.221 416.201L304.239 416.013ZM309.48 400.243C309.595 399.703 309.25 399.172 308.71 399.057C308.17 398.942 307.638 399.287 307.523 399.827L308.502 400.035L309.48 400.243ZM311.102 383.587C310.98 384.126 311.317 384.661 311.856 384.784C312.394 384.906 312.93 384.568 313.052 384.03L312.077 383.808L311.102 383.587ZM328.504 319.648C328.636 319.112 328.308 318.57 327.772 318.438C327.236 318.306 326.694 318.634 326.562 319.17L327.533 319.409L328.504 319.648ZM332.504 295.027C332.373 295.563 332.701 296.105 333.237 296.237C333.773 296.368 334.315 296.04 334.447 295.504L333.475 295.265L332.504 295.027ZM344.198 255.277C344.326 254.739 343.994 254.2 343.457 254.072C342.92 253.944 342.381 254.276 342.253 254.813L343.225 255.045L344.198 255.277ZM347.932 230.632C347.808 231.17 348.143 231.707 348.681 231.831C349.219 231.955 349.756 231.62 349.881 231.082L348.906 230.857L347.932 230.632ZM350.81 227.049C350.934 226.51 350.598 225.974 350.059 225.85C349.521 225.726 348.985 226.062 348.861 226.601L349.836 226.825L350.81 227.049ZM350.707 218.515C350.585 219.054 350.922 219.589 351.461 219.711C352 219.834 352.535 219.496 352.657 218.957L351.682 218.736L350.707 218.515ZM356.273 202.79C356.392 202.251 356.051 201.717 355.512 201.598C354.973 201.48 354.439 201.82 354.32 202.36L355.297 202.575L356.273 202.79ZM357.828 186.181C357.713 186.721 358.058 187.252 358.598 187.367C359.138 187.482 359.669 187.138 359.784 186.598L358.806 186.389L357.828 186.181ZM372.506 121.545C372.602 121.001 372.238 120.482 371.695 120.387C371.151 120.291 370.632 120.655 370.537 121.199L371.521 121.372L372.506 121.545ZM374.627 96.7107C374.541 97.2562 374.914 97.7683 375.459 97.8545C376.005 97.9407 376.517 97.5683 376.603 97.0228L375.615 96.8667L374.627 96.7107ZM381.557 59.0364C381.595 58.4855 381.18 58.0077 380.629 57.9693C380.078 57.9309 379.6 58.3464 379.561 58.8974L380.559 58.9669L381.557 59.0364ZM379.711 38.2297C379.749 38.7806 380.227 39.1961 380.778 39.1576C381.329 39.1192 381.744 38.6414 381.706 38.0904L380.708 38.1601L379.711 38.2297ZM381.416 34.7178C381.36 34.1684 380.868 33.7688 380.319 33.8252C379.77 33.8816 379.37 34.3728 379.427 34.9222L380.421 34.82L381.416 34.7178ZM378.449 28.0898C378.551 28.6326 379.074 28.9898 379.616 28.8876C380.159 28.7855 380.516 28.2627 380.414 27.7199L379.431 27.9049L378.449 28.0898ZM376.143 14.2628C375.898 13.7678 375.298 13.5652 374.803 13.8102C374.308 14.0552 374.105 14.6551 374.35 15.1501L375.246 14.7064L376.143 14.2628ZM365.821 5.09625C366.287 5.39335 366.905 5.25679 367.202 4.79123C367.499 4.32566 367.362 3.7074 366.897 3.4103L366.359 4.25327L365.821 5.09625ZM316.892 20.5677C316.524 20.9788 316.558 21.611 316.969 21.9798C317.38 22.3486 318.012 22.3142 318.381 21.9031L317.637 21.2354L316.892 20.5677ZM307.589 39.1257C307.772 38.6047 307.498 38.0338 306.977 37.8507C306.456 37.6676 305.885 37.9415 305.702 38.4625L306.646 38.7941L307.589 39.1257ZM300 2870.97L300.397 2871.89C304.801 2869.99 308.253 2869.2 310.918 2869.19L310.912 2868.19L310.907 2867.19C307.879 2867.21 304.151 2868.09 299.603 2870.06L300 2870.97ZM320.293 2876.11L319.308 2876.29C319.428 2876.96 319.501 2877.67 319.533 2878.4L320.532 2878.36L321.531 2878.32C321.496 2877.51 321.414 2876.71 321.278 2875.94L320.293 2876.11ZM320.272 2882.87L319.283 2882.72C318.832 2885.76 317.856 2888.75 316.687 2891.04L317.578 2891.49L318.469 2891.95C319.74 2889.46 320.779 2886.26 321.261 2883.02L320.272 2882.87ZM311.219 2894.63L312.083 2894.13C311.673 2893.43 311.284 2892.28 310.998 2890.55C310.714 2888.83 310.541 2886.59 310.525 2883.75C310.494 2878.07 311.093 2870.05 312.645 2859.07L311.655 2858.93L310.664 2858.79C309.106 2869.82 308.493 2877.95 308.525 2883.76C308.541 2886.67 308.718 2889.02 309.024 2890.87C309.329 2892.71 309.77 2894.13 310.354 2895.14L311.219 2894.63ZM313.801 2845.39L314.786 2845.56C315.39 2842.08 316.068 2838.38 316.824 2834.46L315.842 2834.27L314.86 2834.08C314.102 2838.02 313.422 2841.73 312.816 2845.22L313.801 2845.39ZM315.842 2834.27L316.824 2834.46C318.325 2826.66 319.068 2819.53 319.111 2813L318.111 2812.99L317.111 2812.99C317.069 2819.38 316.342 2826.38 314.86 2834.08L315.842 2834.27ZM313.99 2788.13L314.923 2787.77C314.397 2786.4 313.825 2785.08 313.207 2783.79L312.305 2784.22L311.404 2784.66C311.999 2785.9 312.55 2787.17 313.057 2788.49L313.99 2788.13ZM308.036 2776.93L308.855 2776.35C305.555 2771.65 301.535 2767.55 296.904 2763.94L296.29 2764.73L295.676 2765.52C300.167 2769.02 304.044 2772.97 307.217 2777.5L308.036 2776.93ZM281.875 2755.91L282.313 2755.01C264.484 2746.33 241.537 2741.47 216.698 2737.09L216.525 2738.07L216.351 2739.06C241.207 2743.44 263.892 2748.26 281.438 2756.8L281.875 2755.91ZM191.395 2733.77L191.565 2732.78C177.806 2730.42 163.78 2727.88 149.942 2724.67L149.716 2725.64L149.49 2726.62C163.387 2729.84 177.46 2732.39 191.226 2734.75L191.395 2733.77ZM125.124 2719.03L125.422 2718.08C124.07 2717.66 122.724 2717.23 121.383 2716.78L121.07 2717.73L120.757 2718.68C122.109 2719.13 123.465 2719.56 124.826 2719.99L125.124 2719.03ZM113.058 2714.95L113.403 2714.01C108.085 2712.05 102.868 2709.91 97.7841 2707.55L97.3637 2708.46L96.9432 2709.37C102.082 2711.75 107.349 2713.91 112.713 2715.88L113.058 2714.95ZM82.322 2700.59L82.8305 2699.73C63.9772 2688.6 47.645 2673.59 35.7014 2652.68L34.8331 2653.17L33.9647 2653.67C46.105 2674.93 62.7063 2690.17 81.8136 2701.45L82.322 2700.59ZM24.3372 2630.03L25.2807 2629.7C23.0451 2623.33 21.1312 2616.54 19.5706 2609.29L18.5929 2609.5L17.6153 2609.71C19.1927 2617.04 21.129 2623.91 23.3937 2630.36L24.3372 2630.03ZM18.5929 2609.5L19.5706 2609.29C17.8842 2601.45 17.5202 2592.49 18.3219 2582.56L17.3251 2582.48L16.3283 2582.4C15.5158 2592.46 15.8771 2601.63 17.6153 2609.71L18.5929 2609.5ZM22.974 2550.29L23.9435 2550.54C24.3912 2548.77 24.8619 2546.98 25.3552 2545.17L24.3905 2544.91L23.4259 2544.65C22.9294 2546.46 22.4554 2548.26 22.0045 2550.05L22.974 2550.29ZM27.4089 2534.54L28.3645 2534.84C30.4309 2528.13 32.7716 2521.23 35.3574 2514.15L34.4182 2513.81L33.4789 2513.47C30.8828 2520.57 28.5309 2527.51 26.4532 2534.25L27.4089 2534.54ZM42.311 2493.49L43.2364 2493.87C53.4969 2468.83 66.2647 2442.17 80.3806 2415.09L79.4938 2414.62L78.6071 2414.16C64.4728 2441.28 51.6763 2468 41.3857 2493.11L42.311 2493.49ZM94.9422 2385.75L95.8191 2386.23C104.53 2370.34 113.559 2354.45 122.674 2338.8L121.81 2338.3L120.946 2337.8C111.824 2353.46 102.786 2369.36 94.0653 2385.27L94.9422 2385.75ZM138.44 2310.15L139.299 2310.66C140.239 2309.09 141.179 2307.52 142.118 2305.96L141.261 2305.45L140.403 2304.93C139.464 2306.5 138.523 2308.06 137.582 2309.64L138.44 2310.15ZM146.884 2296.12L147.74 2296.64C151.548 2290.35 155.333 2284.14 159.08 2278.02L158.227 2277.5L157.375 2276.98C153.627 2283.09 149.839 2289.31 146.029 2295.6L146.884 2296.12ZM169.657 2258.96L170.508 2259.48C187.8 2231.57 203.795 2206.31 216.726 2185.52L215.876 2184.99L215.027 2184.46C202.119 2205.22 186.09 2230.53 168.807 2258.43L169.657 2258.96ZM233.022 2156.92L233.882 2157.43C240.196 2146.76 244.691 2138.56 246.744 2133.47L245.817 2133.09L244.889 2132.72C242.901 2137.65 238.485 2145.73 232.161 2156.41L233.022 2156.92ZM245.817 2133.09L246.744 2133.47C250.45 2124.27 254.972 2113.95 259.931 2102.06L259.009 2101.67L258.086 2101.29C253.148 2113.12 248.598 2123.51 244.889 2132.72L245.817 2133.09ZM273.842 2063.53L274.784 2063.86C275.538 2061.75 276.292 2059.59 277.045 2057.4L276.099 2057.07L275.153 2056.75C274.402 2058.93 273.651 2061.08 272.9 2063.19L273.842 2063.53ZM280.372 2044.16L281.325 2044.46C283.948 2036.23 286.534 2027.5 289.032 2018.24L288.067 2017.98L287.101 2017.72C284.611 2026.95 282.034 2035.65 279.419 2043.85L280.372 2044.16ZM294.603 1991.47L295.579 1991.68C302.414 1961.15 308.071 1925.53 311.227 1883.67L310.23 1883.6L309.233 1883.52C306.084 1925.28 300.441 1960.81 293.627 1991.25L294.603 1991.47ZM312.41 1842.68L313.41 1842.71C313.762 1831.72 313.948 1820.34 313.948 1808.57H312.948H311.948C311.948 1820.32 311.763 1831.67 311.411 1842.65L312.41 1842.68ZM312.948 1808.57H313.948C313.948 1802.49 313.868 1796.65 313.706 1791.06L312.707 1791.09L311.707 1791.12C311.868 1796.69 311.948 1802.51 311.948 1808.57H312.948ZM311.622 1770.1L312.619 1770.02C312.528 1768.86 312.433 1767.71 312.332 1766.58L311.336 1766.67L310.34 1766.75C310.44 1767.88 310.535 1769.02 310.625 1770.18L311.622 1770.1ZM310.64 1759.71L311.634 1759.6C311.076 1754.63 310.413 1749.98 309.645 1745.67L308.66 1745.85L307.676 1746.02C308.436 1750.29 309.092 1754.89 309.647 1759.82L310.64 1759.71ZM305.538 1732.2L306.498 1731.92C302.816 1719.29 297.622 1710.91 290.562 1707.95C283.413 1704.96 274.866 1707.71 265.012 1716.01L265.657 1716.78L266.301 1717.54C275.996 1709.38 283.72 1707.26 289.79 1709.8C295.949 1712.38 300.921 1719.94 304.578 1732.48L305.538 1732.2ZM251.146 1731.84L250.375 1731.2C246.969 1735.32 243.413 1739.99 239.706 1745.21L240.521 1745.79L241.337 1746.37C245.021 1741.18 248.546 1736.55 251.917 1732.47L251.146 1731.84ZM240.521 1745.79L239.706 1745.21C237.549 1748.25 232.138 1756.97 224.414 1768.73L225.25 1769.28L226.085 1769.82C233.871 1757.97 239.203 1749.38 241.337 1746.37L240.521 1745.79ZM206.339 1797.01L205.524 1796.43C204.443 1797.95 203.343 1799.48 202.225 1801.03L203.036 1801.62L203.847 1802.2C204.968 1800.65 206.071 1799.11 207.154 1797.58L206.339 1797.01ZM196.409 1810.65L195.608 1810.06C191.244 1815.91 186.661 1821.86 181.903 1827.78L182.683 1828.4L183.462 1829.03C188.237 1823.09 192.835 1817.12 197.211 1811.25L196.409 1810.65ZM168.231 1845.59L167.481 1844.93C145.424 1869.9 121 1891.64 97.9011 1899.44L98.221 1900.39L98.5408 1901.34C122.175 1893.36 146.896 1871.26 168.98 1846.25L168.231 1845.59ZM65.3807 1900.67L65.7463 1899.74C52.742 1894.63 40.7268 1882.06 30.7074 1859.06L29.7906 1859.46L28.8738 1859.85C39.0041 1883.11 51.3229 1896.22 65.0151 1901.6L65.3807 1900.67ZM19.0052 1827.52L19.9723 1827.26C19.5212 1825.55 19.0774 1823.8 18.6408 1822.02L17.6695 1822.25L16.6982 1822.49C17.1374 1824.29 17.584 1826.05 18.0381 1827.77L19.0052 1827.52ZM15.1326 1811.11L16.1109 1810.9C14.6699 1804.09 13.3251 1796.84 12.0831 1789.13L11.0958 1789.29L10.1086 1789.45C11.3552 1797.19 12.7059 1804.47 14.1543 1811.32L15.1326 1811.11ZM7.96883 1767.11L8.9614 1766.98C5.84706 1741.58 3.69329 1711.97 2.67327 1677.65L1.67372 1677.68L0.674157 1677.71C1.69559 1712.07 3.8529 1741.75 6.97625 1767.23L7.96883 1767.11ZM1.05497 1644.15L2.05494 1644.14C1.98155 1634.89 1.98125 1625.33 2.05667 1615.47L1.0567 1615.46L0.0567284 1615.46C-0.0187663 1625.33 -0.0184731 1634.89 0.0550001 1644.16L1.05497 1644.15ZM1.0567 1615.46L2.05667 1615.47C2.1277 1606.18 2.22395 1597.07 2.34459 1588.13L1.34468 1588.12L0.34477 1588.11C0.224076 1597.05 0.127788 1606.17 0.0567284 1615.46L1.0567 1615.46ZM1.89774 1555.97L2.89752 1555.99C2.93604 1554.16 2.97563 1552.34 3.0163 1550.52L2.01655 1550.5L1.0168 1550.48C0.976111 1552.3 0.936497 1554.12 0.897962 1555.95L1.89774 1555.97ZM2.27339 1539.7L3.27308 1539.73C3.45386 1532.55 3.65173 1525.49 3.86616 1518.55L2.86663 1518.52L1.86711 1518.49C1.65257 1525.43 1.45459 1532.49 1.27371 1539.68L2.27339 1539.7ZM3.61154 1496.67L4.61085 1496.71C5.77428 1465.55 7.28595 1437 9.09171 1410.85L8.09409 1410.78L7.09646 1410.71C5.28911 1436.89 3.77638 1465.45 2.61224 1496.63L3.61154 1496.67ZM10.5659 1378.55L11.5623 1378.64C13.1972 1359.36 15.0049 1341.55 16.9577 1325.1L15.9647 1324.98L14.9717 1324.86C13.016 1341.33 11.2061 1359.17 9.56946 1378.47L10.5659 1378.55ZM20.1798 1293L21.1693 1293.15C21.4245 1291.4 21.6815 1289.67 21.9402 1287.96L20.9514 1287.81L19.9627 1287.66C19.7034 1289.38 19.446 1291.11 19.1903 1292.86L20.1798 1293ZM22.6388 1277.06L23.6258 1277.22C24.832 1269.81 26.0721 1262.77 27.3416 1256.07L26.3591 1255.89L25.3766 1255.7C24.1037 1262.42 22.8606 1269.48 21.6518 1276.9L22.6388 1277.06ZM30.7018 1234.79L31.6777 1235.01C40.5413 1195.35 50.4887 1170.28 60.1964 1154.56L59.3456 1154.03L58.4947 1153.51C48.6232 1169.49 38.6138 1194.81 29.7259 1234.57L30.7018 1234.79ZM81.6702 1131.35L82.1119 1132.25C88.2466 1129.23 93.7409 1128.92 98.1379 1129.36C100.344 1129.58 102.277 1129.99 103.899 1130.35C104.702 1130.53 105.451 1130.71 106.101 1130.83C106.744 1130.96 107.358 1131.05 107.892 1131.05V1130.05V1129.05C107.56 1129.05 107.102 1128.99 106.483 1128.87C105.87 1128.75 105.164 1128.59 104.337 1128.4C102.699 1128.04 100.67 1127.6 98.3378 1127.37C93.6584 1126.9 87.7717 1127.23 81.2285 1130.45L81.6702 1131.35ZM107.892 1130.05V1131.05C108.241 1131.05 108.943 1131.2 110.064 1131.56C111.15 1131.91 112.526 1132.44 114.173 1133.11C117.465 1134.46 121.774 1136.4 126.878 1138.73L127.293 1137.82L127.709 1136.91C122.607 1134.58 118.264 1132.63 114.932 1131.26C113.266 1130.58 111.837 1130.04 110.682 1129.66C109.564 1129.3 108.591 1129.05 107.892 1129.05V1130.05ZM150.283 1148.31L149.873 1149.22C151.138 1149.79 152.42 1150.37 153.717 1150.94L154.124 1150.03L154.53 1149.11C153.235 1148.54 151.956 1147.97 150.693 1147.4L150.283 1148.31ZM161.829 1153.42L161.431 1154.34C166.463 1156.52 171.667 1158.73 176.959 1160.88L177.336 1159.96L177.713 1159.03C172.438 1156.88 167.249 1154.68 162.228 1152.5L161.829 1153.42ZM193.018 1166.07L192.671 1167.01C216.742 1175.92 241.178 1182.63 258.507 1180.95L258.41 1179.96L258.314 1178.96C241.492 1180.59 217.451 1174.05 193.365 1165.13L193.018 1166.07ZM279.252 1167.99L280.145 1168.44C282.801 1163.16 283.632 1156.16 282.34 1147.17L281.35 1147.32L280.36 1147.46C281.618 1156.2 280.767 1162.75 278.359 1167.54L279.252 1167.99ZM281.35 1147.32L282.34 1147.17C281.295 1139.9 280.451 1132.49 279.793 1125L278.797 1125.09L277.8 1125.17C278.461 1132.7 279.309 1140.15 280.36 1147.46L281.35 1147.32ZM277.213 1098.27L278.213 1098.24C278.165 1096.75 278.124 1095.27 278.09 1093.78L277.09 1093.8L276.09 1093.82C276.125 1095.32 276.166 1096.81 276.214 1098.31L277.213 1098.27ZM276.956 1084.85L277.956 1084.84C277.916 1078.86 277.974 1072.89 278.122 1066.97L277.122 1066.94L276.122 1066.92C275.974 1072.86 275.916 1078.85 275.956 1084.85L276.956 1084.85ZM277.844 1049.05L278.842 1049.1C280.283 1023.16 283.363 998.678 287.376 978.177L286.395 977.985L285.413 977.793C281.381 998.392 278.291 1022.97 276.845 1048.99L277.844 1049.05ZM292.63 951.862L293.59 952.143C296.07 943.667 298.705 936.646 301.387 931.421L300.497 930.964L299.608 930.508C296.846 935.887 294.169 943.04 291.67 951.581L292.63 951.862ZM300.497 930.964L301.387 931.421C303.006 928.267 304.415 925.295 305.592 922.478L304.669 922.092L303.746 921.707C302.595 924.463 301.21 927.386 299.608 930.508L300.497 930.964ZM308.209 910.888L309.192 911.074C309.318 910.404 309.425 909.741 309.511 909.086L308.52 908.955L307.529 908.825C307.447 909.441 307.346 910.067 307.227 910.703L308.209 910.888ZM308.781 905.053L309.781 905.05C309.775 902.26 309.342 899.601 308.443 897.027L307.499 897.356L306.555 897.686C307.376 900.037 307.775 902.474 307.781 905.055L308.781 905.053ZM303.797 890.49L304.601 889.895C299.845 883.463 291.693 877.364 279.657 870.566L279.165 871.437L278.674 872.308C290.655 879.075 298.498 885.005 302.992 891.084L303.797 890.49ZM268.779 865.874L269.235 864.984C266.462 863.564 263.531 862.105 260.437 860.601L260 861.5L259.563 862.399C262.646 863.899 265.564 865.351 268.323 866.764L268.779 865.874ZM260 861.5L260.437 860.601C256.956 858.907 253.865 857.218 251.116 855.489L250.584 856.336L250.051 857.182C252.874 858.957 256.031 860.681 259.563 862.399L260 861.5ZM240.522 848.368L241.241 847.672C240.75 847.165 240.278 846.651 239.824 846.129L239.069 846.785L238.315 847.442C238.792 847.991 239.288 848.531 239.803 849.063L240.522 848.368ZM236.439 843.399L237.262 842.831C235.696 840.561 234.395 838.128 233.305 835.476L232.38 835.856L231.455 836.236C232.595 839.01 233.963 841.571 235.616 843.967L236.439 843.399ZM229.796 827.688L230.768 827.456C228.674 818.689 227.872 807.809 227.15 793.542L226.152 793.592L225.153 793.643C225.873 807.886 226.679 818.947 228.823 827.921L229.796 827.688ZM225.534 780.724L226.533 780.677C226.37 777.265 226.196 773.692 225.999 769.947L225 770L224.001 770.053C224.199 773.793 224.373 777.362 224.535 780.772L225.534 780.724ZM225 770L225.999 769.947C225.753 765.293 225.117 761.226 224.149 757.651L223.183 757.912L222.218 758.174C223.144 761.593 223.762 765.518 224.001 770.053L225 770ZM216.75 744.913L217.527 744.284C216.994 743.626 216.442 742.998 215.873 742.397L215.147 743.085L214.421 743.773C214.956 744.337 215.473 744.926 215.973 745.543L216.75 744.913ZM211.541 739.807L212.16 739.021C209.528 736.95 206.664 735.269 203.7 733.797L203.255 734.692L202.811 735.588C205.694 737.02 208.43 738.631 210.923 740.593L211.541 739.807ZM194.32 730.776L194.697 729.849C182.859 725.033 171.367 720.636 165.995 706.664L165.062 707.023L164.128 707.382C169.854 722.274 182.226 726.935 193.943 731.702L194.32 730.776ZM162.074 692.732L163.071 692.657C162.798 689.055 162.777 685.049 163.048 680.581L162.05 680.521L161.052 680.461C160.776 685.005 160.796 689.103 161.077 692.808L162.074 692.732ZM162.05 680.521L163.048 680.581C163.3 676.412 163.803 672.588 164.525 669.084L163.545 668.882L162.566 668.68C161.823 672.287 161.309 676.205 161.052 680.461L162.05 680.521ZM167.954 655.524L168.855 655.959C169.193 655.26 169.543 654.58 169.905 653.919L169.028 653.439L168.15 652.959C167.772 653.65 167.407 654.36 167.054 655.089L167.954 655.524ZM171.495 649.45L172.316 650.022C174.138 647.408 176.17 645.146 178.366 643.191L177.701 642.444L177.037 641.697C174.725 643.755 172.587 646.135 170.675 648.878L171.495 649.45ZM185.371 637.078L185.848 637.957C196.894 631.959 210.248 631.07 221.853 631.772L221.913 630.774L221.974 629.776C210.234 629.066 196.429 629.936 184.893 636.199L185.371 637.078ZM235.908 632.323L235.758 633.312C238.539 633.734 240.948 634.149 242.939 634.466C244.888 634.776 246.479 635 247.5 635V634V633C246.669 633 245.246 632.808 243.253 632.491C241.302 632.18 238.841 631.757 236.058 631.334L235.908 632.323ZM247.5 634L247.412 634.996C255.23 635.685 262.209 635.466 268.428 634.453L268.267 633.466L268.106 632.479C262.076 633.462 255.266 633.68 247.588 633.004L247.5 634ZM290.996 624.051L291.606 624.843C292.732 623.976 293.807 623.063 294.834 622.106L294.152 621.375L293.47 620.643C292.489 621.558 291.461 622.43 290.386 623.259L290.996 624.051ZM299.674 615.198L300.475 615.796C303.775 611.377 306.371 606.372 308.38 600.948L307.442 600.6L306.504 600.253C304.551 605.528 302.04 610.358 298.873 614.6L299.674 615.198ZM311.593 584.533L312.579 584.697C316.051 563.791 313.866 539.518 310.44 518.267L309.452 518.426L308.465 518.585C311.882 539.776 314.023 563.79 310.606 584.369L311.593 584.533ZM304.846 493.937L305.825 493.732C304.112 485.575 302.534 478.679 301.477 473.494L300.497 473.694L299.518 473.894C300.57 479.058 302.171 486.064 303.868 494.143L304.846 493.937ZM300.497 473.694L301.477 473.494C300.43 468.355 300.267 461.545 300.868 453.213L299.871 453.141L298.874 453.069C298.267 461.474 298.417 468.493 299.518 473.894L300.497 473.694ZM303.008 428.492L303.994 428.657C304.22 427.308 304.455 425.939 304.7 424.549L303.715 424.376L302.73 424.202C302.484 425.597 302.248 426.972 302.022 428.327L303.008 428.492ZM305.221 416.201L306.203 416.389C307.189 411.242 308.285 405.855 309.48 400.243L308.502 400.035L307.523 399.827C306.327 405.449 305.227 410.85 304.239 416.013L305.221 416.201ZM312.077 383.808L313.052 384.03C317.47 364.556 322.775 342.911 328.504 319.648L327.533 319.409L326.562 319.17C320.833 342.43 315.524 364.093 311.102 383.587L312.077 383.808ZM333.475 295.265L334.447 295.504C337.645 282.474 340.919 269.036 344.198 255.277L343.225 255.045L342.253 254.813C338.975 268.566 335.702 282 332.504 295.027L333.475 295.265ZM348.906 230.857L349.881 231.082C350.191 229.74 350.501 228.395 350.81 227.049L349.836 226.825L348.861 226.601C348.552 227.947 348.242 229.29 347.932 230.632L348.906 230.857ZM351.682 218.736L352.657 218.957C353.872 213.602 355.079 208.211 356.273 202.79L355.297 202.575L354.32 202.36C353.127 207.776 351.921 213.163 350.707 218.515L351.682 218.736ZM358.806 186.389L359.784 186.598C364.342 165.211 368.659 143.434 372.506 121.545L371.521 121.372L370.537 121.199C366.694 143.06 362.382 164.813 357.828 186.181L358.806 186.389ZM375.615 96.8667L376.603 97.0228C377.682 90.1922 378.707 83.3605 379.672 76.5361L378.682 76.3961L377.692 76.2561C376.729 83.0692 375.705 89.8902 374.627 96.7107L375.615 96.8667ZM378.682 76.3961L379.672 76.5361C380.561 70.2483 381.181 64.4238 381.557 59.0364L380.559 58.9669L379.561 58.8974C379.19 64.2326 378.575 70.0098 377.692 76.2561L378.682 76.3961ZM380.708 38.1601L381.706 38.0904C381.625 36.9361 381.528 35.8121 381.416 34.7178L380.421 34.82L379.427 34.9222C379.537 35.994 379.631 37.0963 379.711 38.2297L380.708 38.1601ZM379.431 27.9049L380.414 27.7199C379.413 22.3997 377.964 17.9418 376.143 14.2628L375.246 14.7064L374.35 15.1501C376.075 18.6339 377.474 22.911 378.449 28.0898L379.431 27.9049ZM366.359 4.25327L366.897 3.4103C359.447 -1.34402 350.241 -0.737125 341.345 2.8332C332.437 6.40805 323.67 13.0113 316.892 20.5677L317.637 21.2354L318.381 21.9031C324.996 14.5289 333.519 8.12889 342.09 4.68929C350.671 1.24517 359.13 0.826339 365.821 5.09625L366.359 4.25327ZM306.646 38.7941L305.702 38.4625C303.435 44.9111 303.333 51.2209 306.756 56.0753L307.574 55.499L308.391 54.9226C305.493 50.8141 305.43 45.2672 307.589 39.1257L306.646 38.7941Z" fill="url(#paint0_linear_261_49)" fill-opacity="0.7"/>
<defs>
<linearGradient id="paint0_linear_261_49" x1="323.363" y1="-69.0804" x2="-497.508" y2="68.8022" gradientUnits="userSpaceOnUse">
<stop stop-color="#FFD700" stop-opacity="0"/>
<stop offset="0.276042" stop-color="#FFD700" stop-opacity="0.42"/>
<stop offset="0.835473" stop-color="#FFD700" stop-opacity="0.96"/>
<stop offset="1" stop-color="#FFD700"/>
</linearGradient>
</defs>
</svg>
