<svg width="1195" height="1310" viewBox="0 0 1195 1310" fill="none" xmlns="http://www.w3.org/2000/svg">
<path d="M926.352 53.9541L927.093 54.6256L926.352 53.9541ZM885.443 255.028L886.051 254.234L885.443 255.028ZM885.443 223.431L886.32 222.949L886.035 222.431H885.443V223.431ZM804.932 267.339L805.864 267.7L804.932 267.339ZM1014.7 507.396L1014.68 506.396L1014.7 507.396ZM1171.81 440.098L1171.51 439.141L1171.81 440.098ZM1111.75 545.97L1112.48 545.292L1111.75 545.97ZM681 787L680.001 786.951L681 787ZM982.928 850.453L983.305 851.379L982.928 850.453ZM1172.83 866.818L1173.81 867.043L1172.83 866.818ZM1000.29 1028.36L1000.65 1029.29L1000.29 1028.36ZM477.88 1205.15L478.467 1204.34L477.88 1205.15ZM496.253 1221.64L496.882 1222.41L496.253 1221.64ZM0.932738 1308C0.381704 1308.04 -0.0348829 1308.52 0.00226462 1309.07C0.0394121 1309.62 0.516227 1310.03 1.06726 1310L1 1309L0.932738 1308ZM26.8395 1308.28C27.3906 1308.24 27.8075 1307.76 27.7708 1307.21C27.7341 1306.66 27.2576 1306.24 26.7065 1306.28L26.773 1307.28L26.8395 1308.28ZM57.7049 1304.2C57.1539 1304.23 56.7377 1304.71 56.7753 1305.26C56.813 1305.81 57.2901 1306.23 57.8411 1306.19L57.773 1305.19L57.7049 1304.2ZM63.0523 1305.83C63.6033 1305.8 64.0192 1305.32 63.9813 1304.77C63.9434 1304.22 63.466 1303.8 62.915 1303.84L62.9836 1304.84L63.0523 1305.83ZM73.201 1303.12C72.65 1303.16 72.2347 1303.64 72.2732 1304.19C72.3117 1304.74 72.7896 1305.16 73.3405 1305.12L73.2708 1304.12L73.201 1303.12ZM94.0217 1303.64C94.5725 1303.6 94.9865 1303.12 94.9464 1302.57C94.9062 1302.02 94.4272 1301.61 93.8763 1301.65L93.949 1302.65L94.0217 1303.64ZM114.55 1300.11C113.999 1300.15 113.587 1300.63 113.629 1301.18C113.672 1301.73 114.152 1302.14 114.703 1302.1L114.626 1301.1L114.55 1300.11ZM197.252 1294.96C197.801 1294.9 198.203 1294.41 198.149 1293.86C198.095 1293.31 197.605 1292.91 197.056 1292.97L197.154 1293.96L197.252 1294.96ZM227.951 1289.74C227.402 1289.8 227.006 1290.3 227.067 1290.85C227.127 1291.4 227.621 1291.79 228.17 1291.73L228.061 1290.74L227.951 1289.74ZM279.589 1285.44C280.136 1285.37 280.519 1284.87 280.445 1284.32C280.371 1283.77 279.867 1283.39 279.32 1283.46L279.454 1284.45L279.589 1285.44ZM310.051 1279C309.505 1279.08 309.131 1279.6 309.216 1280.14C309.301 1280.69 309.812 1281.06 310.358 1280.98L310.204 1279.99L310.051 1279ZM315.478 1280.17C316.023 1280.08 316.395 1279.57 316.308 1279.02C316.221 1278.48 315.709 1278.11 315.163 1278.19L315.321 1279.18L315.478 1280.17ZM325.386 1276.52C324.842 1276.62 324.474 1277.13 324.565 1277.68C324.656 1278.22 325.172 1278.59 325.717 1278.5L325.551 1277.51L325.386 1276.52ZM346.105 1274.9C346.648 1274.8 347.006 1274.28 346.906 1273.74C346.805 1273.19 346.283 1272.84 345.74 1272.94L345.922 1273.92L346.105 1274.9ZM366.074 1268.95C365.533 1269.06 365.186 1269.59 365.298 1270.13C365.41 1270.67 365.94 1271.02 366.48 1270.91L366.277 1269.93L366.074 1268.95ZM446.444 1248.98C446.962 1248.79 447.225 1248.21 447.033 1247.69C446.841 1247.18 446.265 1246.91 445.747 1247.1L446.096 1248.04L446.444 1248.98ZM474.114 1234.67C473.625 1234.93 473.436 1235.53 473.693 1236.02C473.949 1236.51 474.553 1236.7 475.043 1236.44L474.578 1235.56L474.114 1234.67ZM513.609 1210.64C514.085 1210.36 514.242 1209.75 513.96 1209.27C513.679 1208.8 513.066 1208.64 512.59 1208.92L513.1 1209.78L513.609 1210.64ZM535.632 1199.28C535.093 1199.4 534.754 1199.94 534.876 1200.48C534.997 1201.02 535.533 1201.35 536.071 1201.23L535.851 1200.26L535.632 1199.28ZM540.062 1200.49C540.608 1200.42 540.988 1199.91 540.91 1199.36C540.831 1198.82 540.325 1198.44 539.778 1198.51L539.92 1199.5L540.062 1200.49ZM548.187 1198.1C547.636 1198.07 547.165 1198.5 547.136 1199.05C547.106 1199.6 547.53 1200.07 548.081 1200.1L548.134 1199.1L548.187 1198.1ZM562.921 1205.06C563.363 1205.39 563.99 1205.3 564.321 1204.86C564.652 1204.41 564.561 1203.79 564.119 1203.46L563.52 1204.26L562.921 1205.06ZM572.395 1218.11C572.365 1217.56 571.893 1217.13 571.342 1217.16C570.79 1217.19 570.368 1217.67 570.398 1218.22L571.397 1218.16L572.395 1218.11ZM517.278 1227.45C516.773 1227.23 516.183 1227.45 515.959 1227.96C515.736 1228.47 515.964 1229.06 516.469 1229.28L516.874 1228.36L517.278 1227.45ZM494.594 1217.6C495.064 1217.89 495.68 1217.74 495.97 1217.27C496.26 1216.8 496.114 1216.18 495.644 1215.89L495.119 1216.75L494.594 1217.6ZM479.495 1181.82C479.908 1181.45 479.944 1180.82 479.577 1180.41C479.21 1179.99 478.578 1179.96 478.165 1180.32L478.83 1181.07L479.495 1181.82ZM508.551 1162.13C508.05 1162.36 507.833 1162.96 508.066 1163.46C508.299 1163.96 508.894 1164.18 509.395 1163.95L508.973 1163.04L508.551 1162.13ZM514.669 1161.55C515.174 1161.33 515.402 1160.74 515.178 1160.23C514.955 1159.73 514.364 1159.5 513.859 1159.72L514.264 1160.64L514.669 1161.55ZM524.705 1155.12C524.193 1155.33 523.948 1155.91 524.156 1156.42C524.365 1156.93 524.949 1157.18 525.46 1156.97L525.082 1156.04L524.705 1155.12ZM547.316 1148.6C547.835 1148.42 548.104 1147.84 547.916 1147.32C547.728 1146.8 547.155 1146.53 546.636 1146.72L546.976 1147.66L547.316 1148.6ZM568.873 1139.03C568.349 1139.21 568.065 1139.77 568.238 1140.3C568.412 1140.82 568.978 1141.11 569.502 1140.93L569.188 1139.98L568.873 1139.03ZM659.386 1114.24C659.919 1114.1 660.234 1113.55 660.089 1113.02C659.944 1112.48 659.394 1112.17 658.861 1112.32L659.124 1113.28L659.386 1114.24ZM692.884 1103.27C692.35 1103.41 692.029 1103.95 692.168 1104.49C692.307 1105.02 692.853 1105.34 693.388 1105.2L693.136 1104.24L692.884 1103.27ZM750.217 1090.83C750.754 1090.7 751.081 1090.16 750.949 1089.62C750.817 1089.09 750.275 1088.76 749.739 1088.89L749.978 1089.86L750.217 1090.83ZM783.917 1080.57C783.38 1080.7 783.049 1081.24 783.179 1081.77C783.308 1082.31 783.848 1082.64 784.385 1082.51L784.151 1081.54L783.917 1080.57ZM790.056 1081.15C790.593 1081.02 790.924 1080.48 790.795 1079.94C790.666 1079.41 790.126 1079.08 789.589 1079.2L789.823 1080.18L790.056 1081.15ZM801.05 1076.46C800.512 1076.59 800.181 1077.13 800.309 1077.67C800.437 1078.2 800.977 1078.54 801.514 1078.41L801.282 1077.43L801.05 1076.46ZM824.338 1072.99C824.876 1072.86 825.208 1072.32 825.081 1071.79C824.954 1071.25 824.416 1070.92 823.878 1071.04L824.108 1072.02L824.338 1072.99ZM846.715 1065.67C846.177 1065.79 845.844 1066.33 845.97 1066.87C846.096 1067.41 846.634 1067.74 847.172 1067.61L846.943 1066.64L846.715 1065.67ZM938.465 1046.11C939.002 1045.98 939.332 1045.44 939.203 1044.91C939.073 1044.37 938.533 1044.04 937.996 1044.17L938.231 1045.14L938.465 1046.11ZM971.983 1035.7C971.449 1035.84 971.129 1036.39 971.269 1036.92C971.408 1037.46 971.955 1037.78 972.489 1037.64L972.236 1036.67L971.983 1035.7ZM1023.99 1019.77C1024.5 1019.55 1024.74 1018.96 1024.52 1018.46C1024.3 1017.95 1023.71 1017.71 1023.2 1017.93L1023.6 1018.85L1023.99 1019.77ZM1050.51 1005.13C1050.01 1005.38 1049.82 1005.98 1050.07 1006.47C1050.32 1006.96 1050.92 1007.16 1051.42 1006.91L1050.96 1006.02L1050.51 1005.13ZM1055.89 1004.58C1056.38 1004.32 1056.57 1003.72 1056.31 1003.23C1056.05 1002.74 1055.45 1002.55 1054.96 1002.81L1055.43 1003.7L1055.89 1004.58ZM1063.79 998.004C1063.31 998.274 1063.14 998.884 1063.41 999.365C1063.68 999.847 1064.29 1000.02 1064.77 999.747L1064.28 998.875L1063.79 998.004ZM1082.07 989.317C1082.54 989.017 1082.67 988.398 1082.37 987.934C1082.07 987.47 1081.45 987.338 1080.99 987.637L1081.53 988.477L1082.07 989.317ZM1097.45 976.158C1097.01 976.49 1096.92 977.117 1097.26 977.558C1097.59 977.999 1098.22 978.088 1098.66 977.755L1098.06 976.956L1097.45 976.158ZM1153.16 918.566C1153.44 918.092 1153.29 917.478 1152.82 917.195C1152.34 916.912 1151.73 917.067 1151.44 917.541L1152.3 918.054L1153.16 918.566ZM1164.56 890.541C1164.36 891.057 1164.62 891.635 1165.14 891.833C1165.65 892.031 1166.23 891.773 1166.43 891.257L1165.49 890.899L1164.56 890.541ZM1172.87 843.753C1172.67 843.238 1172.09 842.983 1171.58 843.183C1171.07 843.383 1170.81 843.962 1171.01 844.477L1171.94 844.115L1172.87 843.753ZM1152.25 826.206C1152.75 826.434 1153.34 826.211 1153.57 825.708C1153.8 825.205 1153.58 824.613 1153.07 824.385L1152.66 825.296L1152.25 826.206ZM1148.74 822.627C1148.22 822.44 1147.64 822.709 1147.46 823.228C1147.27 823.748 1147.54 824.321 1148.06 824.508L1148.4 823.568L1148.74 822.627ZM1139.34 822.001C1139.88 822.121 1140.41 821.782 1140.53 821.243C1140.65 820.704 1140.31 820.169 1139.77 820.049L1139.56 821.025L1139.34 822.001ZM1121.34 817.688C1120.79 817.661 1120.32 818.086 1120.29 818.638C1120.26 819.19 1120.69 819.659 1121.24 819.685L1121.29 818.687L1121.34 817.688ZM1102.87 819.885C1103.43 819.85 1103.84 819.375 1103.81 818.824C1103.77 818.273 1103.3 817.854 1102.75 817.889L1102.81 818.887L1102.87 819.885ZM1030.38 832.358C1029.85 832.52 1029.56 833.079 1029.72 833.607C1029.88 834.135 1030.44 834.432 1030.97 834.27L1030.67 833.314L1030.38 832.358ZM1004.8 843.074C1005.32 842.885 1005.59 842.311 1005.4 841.792C1005.21 841.273 1004.63 841.006 1004.12 841.195L1004.46 842.135L1004.8 843.074ZM963.556 859.299C963.071 859.564 962.892 860.171 963.157 860.656C963.421 861.141 964.029 861.319 964.513 861.055L964.035 860.177L963.556 859.299ZM941.814 873.362C942.302 873.103 942.486 872.497 942.226 872.01C941.966 871.522 941.361 871.338 940.873 871.598L941.344 872.48L941.814 873.362ZM937.152 873.574C936.664 873.832 936.477 874.437 936.735 874.925C936.993 875.414 937.599 875.6 938.087 875.342L937.619 874.458L937.152 873.574ZM930.423 879.355C930.914 879.101 931.105 878.497 930.851 878.007C930.597 877.517 929.993 877.325 929.503 877.58L929.963 878.467L930.423 879.355ZM914.294 885.285C913.799 885.53 913.596 886.13 913.841 886.625C914.085 887.12 914.685 887.323 915.18 887.078L914.737 886.182L914.294 885.285ZM899.707 894.506C900.208 894.273 900.425 893.678 900.192 893.177C899.959 892.677 899.364 892.46 898.863 892.693L899.285 893.599L899.707 894.506ZM835.147 917.469C834.618 917.626 834.316 918.183 834.474 918.712C834.631 919.242 835.188 919.543 835.717 919.386L835.432 918.427L835.147 917.469ZM810.713 925.668C811.255 925.559 811.606 925.032 811.497 924.491C811.388 923.949 810.861 923.598 810.32 923.707L810.516 924.688L810.713 925.668ZM767.995 927.418C767.443 927.391 766.974 927.816 766.946 928.367C766.919 928.919 767.344 929.388 767.895 929.416L767.945 928.417L767.995 927.418ZM742.392 925.141C742.92 925.303 743.479 925.006 743.641 924.478C743.803 923.95 743.506 923.391 742.978 923.229L742.685 924.185L742.392 925.141ZM738.985 921.894C738.466 921.706 737.893 921.974 737.704 922.494C737.516 923.013 737.784 923.586 738.304 923.775L738.644 922.835L738.985 921.894ZM730.319 920.388C730.815 920.631 731.414 920.426 731.657 919.931C731.9 919.435 731.695 918.836 731.199 918.592L730.759 919.49L730.319 920.388ZM717.03 909.492C716.604 909.141 715.974 909.203 715.623 909.629C715.272 910.056 715.334 910.686 715.76 911.037L716.395 910.265L717.03 909.492ZM703.774 898.627C704.112 899.064 704.74 899.145 705.177 898.808C705.614 898.47 705.695 897.842 705.358 897.405L704.566 898.016L703.774 898.627ZM683.099 834.045C683.037 833.496 682.543 833.101 681.994 833.162C681.445 833.224 681.05 833.719 681.111 834.268L682.105 834.156L683.099 834.045ZM679.582 808.527C679.589 809.079 680.043 809.521 680.595 809.514C681.147 809.507 681.589 809.054 681.582 808.502L680.582 808.514L679.582 808.527ZM684.915 758.649C685.002 758.103 684.63 757.591 684.085 757.504C683.539 757.417 683.027 757.789 682.94 758.334L683.927 758.491L684.915 758.649ZM690.785 724.814C690.619 725.341 690.912 725.902 691.439 726.068C691.966 726.234 692.527 725.941 692.693 725.414L691.739 725.114L690.785 724.814ZM694.445 720.077C694.624 719.554 694.345 718.986 693.823 718.807C693.3 718.628 692.731 718.906 692.552 719.429L693.499 719.753L694.445 720.077ZM696.582 708.6C696.376 709.112 696.624 709.695 697.136 709.901C697.649 710.107 698.231 709.859 698.437 709.346L697.51 708.973L696.582 708.6ZM708.032 688.745C708.292 688.257 708.107 687.652 707.62 687.392C707.132 687.132 706.527 687.317 706.267 687.805L707.15 688.275L708.032 688.745ZM718.114 668.16C717.804 668.618 717.923 669.239 718.38 669.549C718.838 669.859 719.459 669.74 719.769 669.283L718.941 668.721L718.114 668.16ZM784.108 605.576C784.562 605.261 784.675 604.638 784.361 604.185C784.046 603.73 783.423 603.617 782.969 603.932L783.539 604.754L784.108 605.576ZM812.263 585.911C811.778 586.176 811.6 586.783 811.865 587.268C812.13 587.752 812.737 587.93 813.222 587.666L812.742 586.788L812.263 585.911ZM865.095 564.093C865.612 563.899 865.873 563.322 865.679 562.805C865.485 562.288 864.908 562.027 864.391 562.221L864.743 563.157L865.095 564.093ZM896.973 551.257C896.444 551.415 896.143 551.973 896.302 552.502C896.461 553.031 897.018 553.331 897.547 553.172L897.26 552.214L896.973 551.257ZM903.011 551.563C903.542 551.41 903.847 550.856 903.694 550.325C903.541 549.795 902.987 549.489 902.456 549.642L902.733 550.603L903.011 551.563ZM913.507 546.57C912.973 546.713 912.656 547.261 912.799 547.794C912.942 548.328 913.49 548.645 914.023 548.502L913.765 547.536L913.507 546.57ZM936.193 543.023C936.732 542.9 937.069 542.364 936.946 541.826C936.823 541.287 936.287 540.95 935.749 541.073L935.971 542.048L936.193 543.023ZM958.153 536.378C957.611 536.482 957.255 537.006 957.359 537.549C957.464 538.091 957.988 538.446 958.53 538.342L958.341 537.36L958.153 536.378ZM1049.12 526.579C1049.67 526.539 1050.08 526.06 1050.04 525.51C1050 524.959 1049.52 524.545 1048.97 524.585L1049.04 525.582L1049.12 526.579ZM1083.15 522.799C1082.6 522.816 1082.17 523.278 1082.19 523.83C1082.2 524.382 1082.67 524.815 1083.22 524.798L1083.19 523.799L1083.15 522.799ZM1119.73 525.488C1120.26 525.64 1120.81 525.334 1120.97 524.803C1121.12 524.272 1120.81 523.718 1120.28 523.565L1120.01 524.527L1119.73 525.488ZM1129.5 528.197C1129.06 527.862 1128.43 527.945 1128.09 528.384C1127.76 528.823 1127.84 529.45 1128.28 529.786L1128.89 528.991L1129.5 528.197ZM1129.53 530.805C1129.95 531.167 1130.58 531.122 1130.94 530.705C1131.3 530.287 1131.26 529.656 1130.84 529.294L1130.19 530.049L1129.53 530.805ZM1133.31 531.709C1132.94 531.3 1132.31 531.269 1131.9 531.64C1131.49 532.011 1131.46 532.643 1131.83 533.052L1132.57 532.381L1133.31 531.709ZM1135.57 538.289C1135.83 538.772 1136.44 538.947 1136.93 538.68C1137.41 538.413 1137.58 537.804 1137.32 537.321L1136.44 537.805L1135.57 538.289ZM1139.93 543.703C1139.78 543.171 1139.23 542.858 1138.7 543.004C1138.17 543.15 1137.86 543.701 1138 544.233L1138.97 543.968L1139.93 543.703ZM1126.29 556.797C1125.8 556.543 1125.19 556.734 1124.94 557.224C1124.68 557.714 1124.87 558.318 1125.36 558.572L1125.83 557.685L1126.29 556.797ZM1117.04 552.615C1117.45 552.982 1118.09 552.944 1118.45 552.531C1118.82 552.118 1118.78 551.486 1118.37 551.119L1117.71 551.867L1117.04 552.615ZM1103.93 533.358C1103.68 532.869 1103.07 532.681 1102.58 532.938C1102.09 533.195 1101.9 533.8 1102.16 534.288L1103.05 533.823L1103.93 533.358ZM1097.04 516.777C1097.08 517.328 1097.56 517.741 1098.12 517.7C1098.67 517.659 1099.08 517.18 1099.04 516.629L1098.04 516.703L1097.04 516.777ZM1098.93 513.711C1098.92 513.159 1098.48 512.713 1097.92 512.714C1097.37 512.716 1096.92 513.165 1096.93 513.717L1097.93 513.714L1098.93 513.711ZM1097.33 507.611C1097.26 508.159 1097.64 508.662 1098.19 508.736C1098.74 508.81 1099.24 508.426 1099.31 507.879L1098.32 507.745L1097.33 507.611ZM1102.31 496.565C1102.51 496.051 1102.26 495.47 1101.75 495.268C1101.23 495.066 1100.65 495.318 1100.45 495.832L1101.38 496.199L1102.31 496.565ZM1106 485.026C1105.7 485.493 1105.84 486.11 1106.3 486.406C1106.77 486.702 1107.39 486.564 1107.68 486.098L1106.84 485.562L1106 485.026ZM1142.25 454.218C1142.72 453.936 1142.88 453.323 1142.6 452.848C1142.32 452.373 1141.7 452.216 1141.23 452.498L1141.74 453.358L1142.25 454.218ZM1157.36 444.312C1156.85 444.529 1156.61 445.117 1156.83 445.625C1157.05 446.133 1157.64 446.368 1158.14 446.151L1157.75 445.231L1157.36 444.312ZM1184.89 444.059C1184.59 444.524 1184.73 445.143 1185.19 445.441C1185.66 445.739 1186.27 445.604 1186.57 445.14L1185.73 444.599L1184.89 444.059ZM1167.38 462.233C1167.84 461.922 1167.96 461.3 1167.65 460.843C1167.33 460.387 1166.71 460.27 1166.26 460.581L1166.82 461.407L1167.38 462.233ZM1162.71 462.938C1162.24 463.238 1162.11 463.857 1162.41 464.32C1162.71 464.784 1163.33 464.917 1163.79 464.617L1163.25 463.777L1162.71 462.938ZM1156.59 469.065C1157.06 468.784 1157.22 468.171 1156.94 467.696C1156.66 467.22 1156.05 467.061 1155.57 467.342L1156.08 468.203L1156.59 469.065ZM1140.74 475.382C1140.25 475.629 1140.05 476.23 1140.29 476.724C1140.54 477.218 1141.14 477.418 1141.64 477.171L1141.19 476.277L1140.74 475.382ZM1126.2 484.306C1126.71 484.09 1126.94 483.502 1126.73 482.994C1126.51 482.486 1125.92 482.25 1125.41 482.467L1125.81 483.387L1126.2 484.306ZM1060.85 501.854C1060.31 501.953 1059.94 502.474 1060.04 503.017C1060.14 503.56 1060.66 503.921 1061.21 503.822L1061.03 502.838L1060.85 501.854ZM1035.94 507.276C1036.49 507.225 1036.89 506.739 1036.84 506.189C1036.79 505.639 1036.3 505.234 1035.75 505.284L1035.85 506.28L1035.94 507.276ZM987.509 504.929C986.961 504.863 986.463 505.253 986.396 505.801C986.33 506.35 986.72 506.848 987.268 506.915L987.389 505.922L987.509 504.929ZM954.971 500.442C955.503 500.591 956.054 500.28 956.203 499.749C956.352 499.217 956.041 498.665 955.509 498.516L955.24 499.479L954.971 500.442ZM950.29 496.99C949.761 496.829 949.202 497.126 949.041 497.654C948.88 498.183 949.177 498.741 949.706 498.903L949.998 497.946L950.29 496.99ZM939.274 495.449C939.794 495.634 940.366 495.363 940.552 494.843C940.738 494.323 940.467 493.751 939.946 493.565L939.61 494.507L939.274 495.449ZM919.769 485.334C919.267 485.104 918.673 485.324 918.443 485.826C918.212 486.328 918.432 486.921 918.934 487.152L919.351 486.243L919.769 485.334ZM899.369 477.175C899.851 477.445 900.461 477.274 900.731 476.792C901.001 476.311 900.83 475.701 900.348 475.431L899.859 476.303L899.369 477.175ZM831.467 422.358C831.081 421.963 830.448 421.955 830.053 422.341C829.658 422.727 829.65 423.36 830.036 423.755L830.752 423.057L831.467 422.358ZM808.489 398.859C808.82 399.301 809.447 399.39 809.889 399.058C810.33 398.726 810.419 398.099 810.088 397.658L809.288 398.258L808.489 398.859ZM793.565 363.834C793.464 363.291 792.942 362.933 792.399 363.034C791.856 363.135 791.498 363.657 791.599 364.2L792.582 364.017L793.565 363.834ZM789.97 350.745C790.005 351.296 790.481 351.715 791.032 351.679C791.583 351.644 792.001 351.169 791.966 350.618L790.968 350.681L789.97 350.745ZM791.843 348.402C791.817 347.85 791.349 347.424 790.797 347.45C790.245 347.476 789.819 347.945 789.845 348.497L790.844 348.449L791.843 348.402ZM789.703 343.985C789.712 344.537 790.167 344.977 790.719 344.968C791.271 344.959 791.712 344.504 791.703 343.952L790.703 343.968L789.703 343.985ZM791.809 335.054C791.83 334.502 791.4 334.037 790.848 334.016C790.296 333.994 789.831 334.424 789.81 334.976L790.809 335.015L791.809 335.054ZM790.38 325.986C790.332 326.536 790.739 327.021 791.289 327.069C791.839 327.117 792.324 326.71 792.372 326.16L791.376 326.073L790.38 325.986ZM798.43 291.047C798.567 290.512 798.244 289.967 797.709 289.83C797.174 289.693 796.629 290.015 796.492 290.55L797.461 290.799L798.43 291.047ZM800.24 277.581C800.07 278.106 800.358 278.67 800.884 278.84C801.409 279.01 801.973 278.721 802.143 278.196L801.191 277.888L800.24 277.581ZM810.135 258.899C810.417 258.424 810.26 257.81 809.785 257.528C809.31 257.247 808.696 257.404 808.415 257.879L809.275 258.389L810.135 258.899ZM815.632 248.125C815.26 248.534 815.29 249.166 815.698 249.538C816.107 249.91 816.739 249.88 817.111 249.471L816.371 248.798L815.632 248.125ZM818.453 248.044C818.838 247.648 818.829 247.015 818.433 246.63C818.037 246.245 817.404 246.254 817.019 246.65L817.736 247.347L818.453 248.044ZM819.932 243.842C819.522 244.212 819.491 244.844 819.861 245.254C820.231 245.664 820.864 245.696 821.273 245.325L820.603 244.583L819.932 243.842ZM827.402 240.437C827.854 240.119 827.962 239.495 827.644 239.043C827.326 238.592 826.702 238.483 826.251 238.801L826.826 239.619L827.402 240.437ZM833.1 234.53C832.616 234.796 832.44 235.405 832.707 235.888C832.974 236.372 833.582 236.548 834.065 236.281L833.583 235.406L833.1 234.53ZM863.812 226.255C864.357 226.16 864.721 225.643 864.627 225.099C864.533 224.554 864.016 224.19 863.471 224.284L863.642 225.269L863.812 226.255ZM875.423 222.809C874.872 222.851 874.46 223.331 874.502 223.882C874.543 224.432 875.023 224.845 875.574 224.803L875.499 223.806L875.423 222.809ZM887.124 228.699C887.378 229.189 887.982 229.38 888.472 229.126C888.962 228.872 889.154 228.268 888.899 227.778L888.012 228.238L887.124 228.699ZM891.843 233.664C891.603 233.167 891.006 232.957 890.508 233.196C890.01 233.436 889.801 234.033 890.04 234.531L890.941 234.098L891.843 233.664ZM890.508 235.511C890.745 236.011 891.341 236.223 891.84 235.987C892.339 235.751 892.552 235.154 892.316 234.655L891.412 235.083L890.508 235.511ZM893.244 236.645C893.013 236.143 892.42 235.923 891.918 236.153C891.416 236.384 891.196 236.977 891.426 237.479L892.335 237.062L893.244 236.645ZM893.183 241.446C893.399 241.954 893.987 242.191 894.495 241.975C895.003 241.759 895.24 241.172 895.024 240.663L894.103 241.055L893.183 241.446ZM896.675 244.749C896.479 244.233 895.901 243.974 895.385 244.17C894.869 244.367 894.61 244.945 894.807 245.461L895.741 245.105L896.675 244.749ZM895.958 259.563C895.406 259.558 894.954 260.002 894.949 260.554C894.945 261.106 895.388 261.558 895.941 261.563L895.949 260.563L895.958 259.563ZM889.411 259.02C889.881 259.31 890.497 259.164 890.787 258.694C891.078 258.224 890.932 257.608 890.462 257.318L889.937 258.169L889.411 259.02ZM873.127 236.466C872.907 235.96 872.318 235.728 871.811 235.948C871.305 236.169 871.073 236.758 871.293 237.264L872.21 236.865L873.127 236.466ZM864.576 210.61C864.637 211.159 865.132 211.554 865.681 211.493C866.23 211.431 866.625 210.937 866.563 210.388L865.57 210.499L864.576 210.61ZM866.148 205.909C866.107 205.359 865.627 204.945 865.076 204.986C864.525 205.027 864.112 205.507 864.153 206.058L865.15 205.984L866.148 205.909ZM863.789 196.888C863.792 197.44 864.243 197.885 864.795 197.882C865.347 197.878 865.792 197.428 865.789 196.875L864.789 196.882L863.789 196.888ZM866.772 178.853C866.834 178.304 866.439 177.809 865.89 177.747C865.341 177.686 864.846 178.081 864.785 178.629L865.778 178.741L866.772 178.853ZM867.777 160.606C867.659 161.146 868.001 161.678 868.541 161.796C869.08 161.914 869.613 161.572 869.731 161.033L868.754 160.819L867.777 160.606ZM897.162 94.365C897.451 93.8942 897.303 93.2785 896.832 92.9898C896.361 92.7012 895.746 92.8489 895.457 93.3198L896.309 93.8424L897.162 94.365ZM910.974 70.7971C910.638 71.2351 910.72 71.8629 911.158 72.1993C911.596 72.5358 912.224 72.4536 912.56 72.0156L911.767 71.4064L910.974 70.7971ZM948.617 36.072C949.074 35.7618 949.193 35.1399 948.883 34.683C948.573 34.2261 947.951 34.1071 947.494 34.4173L948.056 35.2447L948.617 36.072ZM978.177 18.3746C977.664 18.5792 977.414 19.1609 977.619 19.6739C977.823 20.1869 978.405 20.437 978.918 20.2324L978.548 19.3035L978.177 18.3746ZM984.262 18.1934C984.781 18.004 985.048 17.43 984.858 16.9112C984.669 16.3923 984.095 16.1253 983.576 16.3146L983.919 17.254L984.262 18.1934ZM994.526 12.6562C993.998 12.8173 993.701 13.3761 993.862 13.9044C994.023 14.4327 994.581 14.7304 995.11 14.5693L994.818 13.6128L994.526 12.6562ZM1017.29 8.94269C1017.83 8.83064 1018.17 8.30139 1018.06 7.7606C1017.95 7.2198 1017.42 6.87224 1016.88 6.98429L1017.08 7.96349L1017.29 8.94269ZM1039.62 3.18026C1039.08 3.25157 1038.69 3.75336 1038.76 4.30102C1038.83 4.84868 1039.33 5.23483 1039.88 5.16351L1039.75 4.17188L1039.62 3.18026ZM1131.44 3.63549C1131.99 3.67976 1132.47 3.26937 1132.52 2.71887C1132.56 2.16836 1132.15 1.6862 1131.6 1.64193L1131.52 2.63871L1131.44 3.63549ZM1165.91 5.55122C1165.36 5.47004 1164.85 5.84707 1164.77 6.39335C1164.69 6.93964 1165.07 7.44831 1165.62 7.52949L1165.76 6.54036L1165.91 5.55122ZM1 1309L1.06726 1310C9.35472 1309.44 17.9606 1308.87 26.8395 1308.28L26.773 1307.28L26.7065 1306.28C17.8282 1306.87 9.22122 1307.44 0.932738 1308L1 1309ZM57.773 1305.19L57.8411 1306.19C59.5709 1306.07 61.308 1305.95 63.0523 1305.83L62.9836 1304.84L62.915 1303.84C61.1711 1303.96 59.4343 1304.08 57.7049 1304.2L57.773 1305.19ZM73.2708 1304.12L73.3405 1305.12C80.1428 1304.64 87.0419 1304.15 94.0217 1303.64L93.949 1302.65L93.8763 1301.65C86.8988 1302.16 80.0016 1302.65 73.201 1303.12L73.2708 1304.12ZM114.626 1301.1L114.703 1302.1C141.584 1300.04 169.391 1297.7 197.252 1294.96L197.154 1293.96L197.056 1292.97C169.213 1295.71 141.422 1298.05 114.55 1300.11L114.626 1301.1ZM228.061 1290.74L228.17 1291.73C245.483 1289.82 262.693 1287.74 279.589 1285.44L279.454 1284.45L279.32 1283.46C262.443 1285.75 245.25 1287.84 227.951 1289.74L228.061 1290.74ZM310.204 1279.99L310.358 1280.98C312.07 1280.71 313.776 1280.44 315.478 1280.17L315.321 1279.18L315.163 1278.19C313.464 1278.46 311.76 1278.73 310.051 1279L310.204 1279.99ZM325.551 1277.51L325.717 1278.5C332.611 1277.34 339.412 1276.15 346.105 1274.9L345.922 1273.92L345.74 1272.94C339.06 1274.18 332.27 1275.37 325.386 1276.52L325.551 1277.51ZM366.277 1269.93L366.48 1270.91C396.381 1264.7 423.586 1257.47 446.444 1248.98L446.096 1248.04L445.747 1247.1C423.017 1255.55 395.918 1262.76 366.074 1268.95L366.277 1269.93ZM474.578 1235.56L475.043 1236.44C483.398 1232.06 490.731 1227.39 496.882 1222.41L496.253 1221.64L495.623 1220.86C489.598 1225.74 482.382 1230.34 474.114 1234.67L474.578 1235.56ZM496.253 1221.64L496.882 1222.41C502.779 1217.64 508.36 1213.75 513.609 1210.64L513.1 1209.78L512.59 1208.92C507.248 1212.09 501.587 1216.03 495.623 1220.86L496.253 1221.64ZM535.851 1200.26L536.071 1201.23C537.441 1200.92 538.771 1200.68 540.062 1200.49L539.92 1199.5L539.778 1198.51C538.433 1198.71 537.051 1198.96 535.632 1199.28L535.851 1200.26ZM548.134 1199.1L548.081 1200.1C554.31 1200.43 559.276 1202.33 562.921 1205.06L563.52 1204.26L564.119 1203.46C560.126 1200.47 554.771 1198.45 548.187 1198.1L548.134 1199.1ZM571.397 1218.16L570.398 1218.22C570.753 1224.62 567.043 1231.03 558.522 1233.86C549.936 1236.7 536.39 1235.9 517.278 1227.45L516.874 1228.36L516.469 1229.28C535.797 1237.83 549.894 1238.82 559.15 1235.76C568.472 1232.67 572.803 1225.47 572.395 1218.11L571.397 1218.16ZM495.119 1216.75L495.644 1215.89C490.234 1212.56 484.511 1208.72 478.467 1204.34L477.88 1205.15L477.293 1205.96C483.374 1210.37 489.138 1214.23 494.594 1217.6L495.119 1216.75ZM477.88 1205.15L478.467 1204.34C473.6 1200.81 471.696 1197.25 471.936 1193.71C472.18 1190.08 474.68 1186.1 479.495 1181.82L478.83 1181.07L478.165 1180.32C473.227 1184.72 470.239 1189.15 469.94 1193.57C469.636 1198.08 472.134 1202.22 477.293 1205.96L477.88 1205.15ZM508.973 1163.04L509.395 1163.95C511.103 1163.15 512.862 1162.35 514.669 1161.55L514.264 1160.64L513.859 1159.72C512.042 1160.53 510.271 1161.33 508.551 1162.13L508.973 1163.04ZM525.082 1156.04L525.46 1156.97C532.244 1154.2 539.552 1151.41 547.316 1148.6L546.976 1147.66L546.636 1146.72C538.851 1149.54 531.518 1152.34 524.705 1155.12L525.082 1156.04ZM569.188 1139.98L569.502 1140.93C596.319 1132.04 626.996 1123.06 659.386 1114.24L659.124 1113.28L658.861 1112.32C626.451 1121.13 595.736 1130.12 568.873 1139.03L569.188 1139.98ZM693.136 1104.24L693.388 1105.2C712.153 1100.32 731.224 1095.51 750.217 1090.83L749.978 1089.86L749.739 1088.89C730.739 1093.57 711.659 1098.38 692.884 1103.27L693.136 1104.24ZM784.151 1081.54L784.385 1082.51C786.279 1082.06 788.169 1081.6 790.056 1081.15L789.823 1080.18L789.589 1079.2C787.702 1079.66 785.811 1080.11 783.917 1080.57L784.151 1081.54ZM801.282 1077.43L801.514 1078.41C809.205 1076.57 816.822 1074.77 824.338 1072.99L824.108 1072.02L823.878 1071.04C816.361 1072.82 808.742 1074.63 801.05 1076.46L801.282 1077.43ZM846.943 1066.64L847.172 1067.61C881.422 1059.58 912.812 1052.3 938.465 1046.11L938.231 1045.14L937.996 1044.17C912.351 1050.35 880.973 1057.63 846.715 1065.67L846.943 1066.64ZM972.236 1036.67L972.489 1037.64C985.385 1034.27 995.082 1031.45 1000.65 1029.29L1000.29 1028.36L999.931 1027.43C994.48 1029.54 984.888 1032.33 971.983 1035.7L972.236 1036.67ZM1000.29 1028.36L1000.65 1029.29C1008.19 1026.37 1016.02 1023.22 1023.99 1019.77L1023.6 1018.85L1023.2 1017.93C1015.25 1021.37 1007.45 1024.52 999.931 1027.43L1000.29 1028.36ZM1050.96 1006.02L1051.42 1006.91C1052.91 1006.14 1054.4 1005.37 1055.89 1004.58L1055.43 1003.7L1054.96 1002.81C1053.48 1003.6 1051.99 1004.37 1050.51 1005.13L1050.96 1006.02ZM1064.28 998.875L1064.77 999.747C1070.59 996.471 1076.37 993.001 1082.07 989.317L1081.53 988.477L1080.99 987.637C1075.32 991.298 1069.58 994.747 1063.79 998.004L1064.28 998.875ZM1098.06 976.956L1098.66 977.755C1119.76 961.866 1138.88 942.506 1153.16 918.566L1152.3 918.054L1151.44 917.541C1137.32 941.212 1118.4 960.387 1097.45 976.158L1098.06 976.956ZM1165.49 890.899L1166.43 891.257C1169.37 883.584 1171.85 875.52 1173.81 867.043L1172.83 866.818L1171.86 866.594C1169.92 874.98 1167.47 882.954 1164.56 890.541L1165.49 890.899ZM1172.83 866.818L1173.81 867.043C1175.82 858.318 1175.49 850.488 1172.87 843.753L1171.94 844.115L1171.01 844.477C1173.45 850.761 1173.8 858.17 1171.86 866.594L1172.83 866.818ZM1152.66 825.296L1153.07 824.385C1151.69 823.757 1150.24 823.171 1148.74 822.627L1148.4 823.568L1148.06 824.508C1149.52 825.035 1150.91 825.602 1152.25 826.206L1152.66 825.296ZM1139.56 821.025L1139.77 820.049C1134.23 818.81 1128.08 818.016 1121.34 817.688L1121.29 818.687L1121.24 819.685C1127.88 820.008 1133.92 820.791 1139.34 822.001L1139.56 821.025ZM1102.81 818.887L1102.75 817.889C1082.44 819.177 1058.17 823.84 1030.38 832.358L1030.67 833.314L1030.97 834.27C1058.65 825.785 1082.76 821.161 1102.87 819.885L1102.81 818.887ZM1004.46 842.135L1004.12 841.195C997.112 843.75 989.922 846.525 982.551 849.527L982.928 850.453L983.305 851.379C990.655 848.387 997.822 845.62 1004.8 843.074L1004.46 842.135ZM982.928 850.453L982.551 849.527C978.723 851.086 972.151 854.612 963.556 859.299L964.035 860.177L964.513 861.055C973.157 856.342 979.608 852.885 983.305 851.379L982.928 850.453ZM941.344 872.48L940.873 871.598C939.651 872.249 938.41 872.908 937.152 873.574L937.619 874.458L938.087 875.342C939.347 874.675 940.59 874.015 941.814 873.362L941.344 872.48ZM929.963 878.467L929.503 877.58C924.639 880.101 919.557 882.685 914.294 885.285L914.737 886.182L915.18 887.078C920.456 884.471 925.55 881.882 930.423 879.355L929.963 878.467ZM899.285 893.599L898.863 892.693C878.859 902 857.021 910.959 835.147 917.469L835.432 918.427L835.717 919.386C857.716 912.839 879.649 903.838 899.707 894.506L899.285 893.599ZM810.516 924.688L810.32 923.707C795.712 926.64 781.422 928.088 767.995 927.418L767.945 928.417L767.895 929.416C781.53 930.096 795.991 928.624 810.713 925.668L810.516 924.688ZM742.685 924.185L742.978 923.229C741.632 922.816 740.3 922.371 738.985 921.894L738.644 922.835L738.304 923.775C739.651 924.263 741.014 924.718 742.392 925.141L742.685 924.185ZM730.759 919.49L731.199 918.592C726.179 916.132 721.44 913.118 717.03 909.492L716.395 910.265L715.76 911.037C720.294 914.765 725.165 917.862 730.319 920.388L730.759 919.49ZM704.566 898.016L705.358 897.405C694.158 882.893 686.266 862.325 683.099 834.045L682.105 834.156L681.111 834.268C684.306 862.795 692.289 883.745 703.774 898.627L704.566 898.016ZM680.582 808.514L681.582 808.502C681.496 801.706 681.631 794.56 681.999 787.049L681 787L680.001 786.951C679.631 794.5 679.495 801.688 679.582 808.527L680.582 808.514ZM681 787L681.999 787.049C682.481 777.217 683.465 767.755 684.915 758.649L683.927 758.491L682.94 758.334C681.478 767.514 680.487 777.048 680.001 786.951L681 787ZM691.739 725.114L692.693 725.414C693.257 723.619 693.841 721.84 694.445 720.077L693.499 719.753L692.552 719.429C691.943 721.208 691.354 723.003 690.785 724.814L691.739 725.114ZM697.51 708.973L698.437 709.346C701.311 702.207 704.519 695.343 708.032 688.745L707.15 688.275L706.267 687.805C702.72 694.465 699.483 701.393 696.582 708.6L697.51 708.973ZM718.941 668.721L719.769 669.283C737.008 643.85 759.134 622.875 784.108 605.576L783.539 604.754L782.969 603.932C757.828 621.347 735.514 642.49 718.114 668.16L718.941 668.721ZM812.742 586.788L813.222 587.666C829.877 578.563 847.331 570.768 865.095 564.093L864.743 563.157L864.391 562.221C846.553 568.924 829.011 576.757 812.263 585.911L812.742 586.788ZM897.26 552.214L897.547 553.172C899.369 552.626 901.19 552.089 903.011 551.563L902.733 550.603L902.456 549.642C900.628 550.17 898.801 550.708 896.973 551.257L897.26 552.214ZM913.765 547.536L914.023 548.502C921.45 546.517 928.851 544.695 936.193 543.023L935.971 542.048L935.749 541.073C928.384 542.75 920.958 544.578 913.507 546.57L913.765 547.536ZM958.341 537.36L958.53 538.342C992.005 531.915 1023.39 528.448 1049.12 526.579L1049.04 525.582L1048.97 524.585C1023.18 526.458 991.722 529.933 958.153 536.378L958.341 537.36ZM1083.19 523.799L1083.22 524.798C1097.12 524.358 1107.09 524.4 1111.75 524.4V523.4V522.4C1107.09 522.4 1097.1 522.358 1083.15 522.799L1083.19 523.799ZM1111.75 523.4V524.4C1114.65 524.4 1117.31 524.792 1119.73 525.488L1120.01 524.527L1120.28 523.565C1117.68 522.817 1114.83 522.4 1111.75 522.4V523.4ZM1128.89 528.991L1128.28 529.786C1128.71 530.115 1129.13 530.455 1129.53 530.805L1130.19 530.049L1130.84 529.294C1130.41 528.917 1129.96 528.551 1129.5 528.197L1128.89 528.991ZM1132.57 532.381L1131.83 533.052C1133.31 534.686 1134.56 536.46 1135.57 538.289L1136.44 537.805L1137.32 537.321C1136.23 535.363 1134.9 533.462 1133.31 531.709L1132.57 532.381ZM1138.97 543.968L1138 544.233C1139.4 549.32 1138.95 553.879 1137.04 556.397C1136.11 557.62 1134.81 558.399 1133.09 558.56C1131.35 558.724 1129.09 558.252 1126.29 556.797L1125.83 557.685L1125.36 558.572C1128.38 560.136 1131.03 560.762 1133.28 560.551C1135.57 560.336 1137.37 559.265 1138.63 557.608C1141.09 554.368 1141.4 549.051 1139.93 543.703L1138.97 543.968ZM1117.71 551.867L1118.37 551.119C1116.53 549.487 1114.57 547.555 1112.48 545.292L1111.75 545.97L1111.01 546.647C1113.14 548.952 1115.15 550.932 1117.04 552.615L1117.71 551.867ZM1111.75 545.97L1112.48 545.292C1108.87 541.371 1106.05 537.379 1103.93 533.358L1103.05 533.823L1102.16 534.288C1104.36 538.478 1107.29 542.61 1111.01 546.647L1111.75 545.97ZM1098.04 516.703L1099.04 516.629C1098.97 515.656 1098.93 514.683 1098.93 513.711L1097.93 513.714L1096.93 513.717C1096.93 514.736 1096.97 515.756 1097.04 516.777L1098.04 516.703ZM1098.32 507.745L1099.31 507.879C1099.83 504.07 1100.84 500.288 1102.31 496.565L1101.38 496.199L1100.45 495.832C1098.93 499.692 1097.87 503.63 1097.33 507.611L1098.32 507.745ZM1106.84 485.562L1107.68 486.098C1115.41 473.932 1127.69 462.862 1142.25 454.218L1141.74 453.358L1141.23 452.498C1126.46 461.261 1113.93 472.533 1106 485.026L1106.84 485.562ZM1157.75 445.231L1158.14 446.151C1162.69 444.202 1167.36 442.493 1172.1 441.055L1171.81 440.098L1171.51 439.141C1166.71 440.601 1161.97 442.335 1157.36 444.312L1157.75 445.231ZM1171.81 440.098L1172.1 441.055C1175.54 440.008 1178.34 439.394 1180.52 439.147C1182.73 438.898 1184.21 439.038 1185.1 439.39C1185.53 439.56 1185.78 439.765 1185.93 439.963C1186.07 440.156 1186.16 440.403 1186.18 440.744C1186.2 441.477 1185.84 442.579 1184.89 444.059L1185.73 444.599L1186.57 445.14C1187.59 443.551 1188.22 442.027 1188.17 440.68C1188.15 439.981 1187.95 439.324 1187.53 438.762C1187.11 438.206 1186.52 437.805 1185.83 437.531C1184.49 436.997 1182.62 436.898 1180.3 437.16C1177.95 437.425 1175.03 438.073 1171.51 439.141L1171.81 440.098ZM1166.82 461.407L1166.26 460.581C1165.12 461.358 1163.93 462.144 1162.71 462.938L1163.25 463.777L1163.79 464.617C1165.03 463.815 1166.23 463.02 1167.38 462.233L1166.82 461.407ZM1156.08 468.203L1155.57 467.342C1151.05 470.006 1146.09 472.708 1140.74 475.382L1141.19 476.277L1141.64 477.171C1147.03 474.477 1152.02 471.753 1156.59 469.065L1156.08 468.203ZM1125.81 483.387L1125.41 482.467C1106.86 490.384 1084.94 497.479 1060.85 501.854L1061.03 502.838L1061.21 503.822C1085.46 499.417 1107.53 492.276 1126.2 484.306L1125.81 483.387ZM1035.85 506.28L1035.75 505.284C1028.85 505.915 1021.82 506.299 1014.68 506.396L1014.7 507.396L1014.71 508.396C1021.9 508.298 1028.98 507.911 1035.94 507.276L1035.85 506.28ZM1014.7 507.396L1014.68 506.396C1005.44 506.523 996.375 506.006 987.509 504.929L987.389 505.922L987.268 506.915C996.22 508.001 1005.38 508.524 1014.71 508.396L1014.7 507.396ZM955.24 499.479L955.509 498.516C953.759 498.027 952.019 497.518 950.29 496.99L949.998 497.946L949.706 498.903C951.45 499.436 953.205 499.949 954.971 500.442L955.24 499.479ZM939.61 494.507L939.946 493.565C933.035 491.098 926.304 488.336 919.769 485.334L919.351 486.243L918.934 487.152C925.519 490.177 932.305 492.961 939.274 495.449L939.61 494.507ZM899.859 476.303L900.348 475.431C872.525 459.812 849.089 440.399 831.467 422.358L830.752 423.057L830.036 423.755C847.769 441.91 871.354 461.448 899.369 477.175L899.859 476.303ZM809.288 398.258L810.088 397.658C802.765 387.912 798.081 379.783 796.305 374.531L795.357 374.852L794.41 375.172C796.29 380.73 801.129 389.064 808.489 398.859L809.288 398.258ZM795.357 374.852L796.305 374.531C795.178 371.2 794.269 367.619 793.565 363.834L792.582 364.017L791.599 364.2C792.318 368.064 793.249 371.739 794.41 375.172L795.357 374.852ZM790.968 350.681L791.966 350.618C791.919 349.884 791.878 349.145 791.843 348.402L790.844 348.449L789.845 348.497C789.881 349.25 789.922 350 789.97 350.745L790.968 350.681ZM790.703 343.968L791.703 343.952C791.655 341.035 791.692 338.064 791.809 335.054L790.809 335.015L789.81 334.976C789.692 338.021 789.655 341.029 789.703 343.985L790.703 343.968ZM791.376 326.073L792.372 326.16C793.389 314.501 795.492 302.515 798.43 291.047L797.461 290.799L796.492 290.55C793.529 302.117 791.406 314.212 790.38 325.986L791.376 326.073ZM801.191 277.888L802.143 278.196C803.307 274.595 804.55 271.087 805.864 267.7L804.932 267.339L803.999 266.977C802.671 270.401 801.415 273.945 800.24 277.581L801.191 277.888ZM804.932 267.339L805.864 267.7C807.082 264.562 808.514 261.632 810.135 258.899L809.275 258.389L808.415 257.879C806.738 260.707 805.257 263.736 803.999 266.977L804.932 267.339ZM816.371 248.798L817.111 249.471C817.551 248.987 817.999 248.511 818.453 248.044L817.736 247.347L817.019 246.65C816.55 247.133 816.087 247.625 815.632 248.125L816.371 248.798ZM820.603 244.583L821.273 245.325C823.217 243.568 825.266 241.941 827.402 240.437L826.826 239.619L826.251 238.801C824.051 240.35 821.939 242.028 819.932 243.842L820.603 244.583ZM833.583 235.406L834.065 236.281C843.224 231.234 853.504 228.039 863.812 226.255L863.642 225.269L863.471 224.284C852.996 226.097 842.495 229.352 833.1 234.53L833.583 235.406ZM875.499 223.806L875.574 224.803C878.923 224.549 882.226 224.431 885.443 224.431V223.431V222.431C882.177 222.431 878.823 222.551 875.423 222.809L875.499 223.806ZM885.443 223.431L884.567 223.913C885.4 225.426 886.26 227.033 887.124 228.699L888.012 228.238L888.899 227.778C888.028 226.098 887.16 224.476 886.32 222.949L885.443 223.431ZM890.941 234.098L890.04 234.531C890.197 234.857 890.353 235.184 890.508 235.511L891.412 235.083L892.316 234.655C892.159 234.324 892.001 233.994 891.843 233.664L890.941 234.098ZM892.335 237.062L891.426 237.479C892.038 238.811 892.627 240.139 893.183 241.446L894.103 241.055L895.024 240.663C894.459 239.337 893.862 237.992 893.244 236.645L892.335 237.062ZM895.741 245.105L894.807 245.461C896.441 249.747 897.517 253.503 897.685 256.138C897.77 257.468 897.611 258.36 897.316 258.882C897.077 259.306 896.707 259.57 895.958 259.563L895.949 260.563L895.941 261.563C897.336 261.575 898.422 260.991 899.058 259.865C899.639 258.836 899.774 257.474 899.681 256.01C899.493 253.057 898.321 249.064 896.675 244.749L895.741 245.105ZM889.937 258.169L890.462 257.318C889.176 256.523 887.711 255.504 886.051 254.234L885.443 255.028L884.836 255.822C886.534 257.122 888.055 258.181 889.411 259.02L889.937 258.169ZM885.443 255.028L886.051 254.234C880.957 250.336 876.534 244.294 873.127 236.466L872.21 236.865L871.293 237.264C874.795 245.311 879.402 251.664 884.836 255.822L885.443 255.028ZM865.57 210.499L866.563 210.388C866.399 208.92 866.261 207.427 866.148 205.909L865.15 205.984L864.153 206.058C864.268 207.599 864.409 209.117 864.576 210.61L865.57 210.499ZM864.789 196.882L865.789 196.875C865.753 191.133 866.068 185.109 866.772 178.853L865.778 178.741L864.785 178.629C864.072 184.961 863.753 191.064 863.789 196.888L864.789 196.882ZM868.754 160.819L869.731 161.033C874.299 140.116 883.06 117.37 897.162 94.365L896.309 93.8424L895.457 93.3198C881.241 116.51 872.395 139.465 867.777 160.606L868.754 160.819ZM911.767 71.4064L912.56 72.0156C917.033 66.1945 921.871 60.3894 927.093 54.6256L926.352 53.9541L925.611 53.2827C920.353 59.0862 915.48 64.9328 910.974 70.7971L911.767 71.4064ZM926.352 53.9541L927.093 54.6256C933.441 47.6202 940.675 41.4639 948.617 36.072L948.056 35.2447L947.494 34.4173C939.433 39.8897 932.075 46.1485 925.611 53.2827L926.352 53.9541ZM978.548 19.3035L978.918 20.2324C980.682 19.5292 982.464 18.8497 984.262 18.1934L983.919 17.254L983.576 16.3146C981.76 16.9774 979.96 17.6639 978.177 18.3746L978.548 19.3035ZM994.818 13.6128L995.11 14.5693C1002.31 12.3727 1009.73 10.5083 1017.29 8.94269L1017.08 7.96349L1016.88 6.98429C1009.27 8.56104 1001.79 10.4401 994.526 12.6562L994.818 13.6128ZM1039.75 4.17188L1039.88 5.16351C1070.84 1.13182 1102.88 1.33833 1131.44 3.63549L1131.52 2.63871L1131.6 1.64193C1102.94 -0.663258 1070.76 -0.87401 1039.62 3.18026L1039.75 4.17188ZM1165.76 6.54036L1165.62 7.52949C1176.09 9.08642 1185.6 10.8524 1193.78 12.664L1194 11.6876L1194.22 10.7112C1185.98 8.88871 1176.43 7.11444 1165.91 5.55122L1165.76 6.54036Z" fill="url(#paint0_linear_219_24)" fill-opacity="0.7"/>
<defs>
<linearGradient id="paint0_linear_219_24" x1="1243.53" y1="-49.2759" x2="17.4083" y2="1270.82" gradientUnits="userSpaceOnUse">
<stop stop-color="#FFD700" stop-opacity="0"/>
<stop offset="0.276042" stop-color="#FFD700" stop-opacity="0.42"/>
<stop offset="0.835473" stop-color="#FFD700" stop-opacity="0.96"/>
<stop offset="1" stop-color="#FFD700"/>
</linearGradient>
</defs>
</svg>
